# Blender 4.4.0
# www.blender.org
mtllib torus-knot-tri-untextured.mtl
o TorusKnot
v -0.500558 -0.012096 0.020276
v -0.646841 -0.312184 -0.166793
v -1.000000 -0.429399 -0.256157
v -1.353159 -0.295078 -0.195468
v -1.499442 0.012096 -0.020276
v -1.353159 0.312184 0.166793
v -1.000000 0.429399 0.256157
v -0.646841 0.295078 0.195468
v -0.483635 0.194714 -0.330922
v -0.630968 -0.100176 -0.525292
v -0.981856 -0.199635 -0.641188
v -1.330755 -0.045402 -0.610719
v -1.473284 0.272177 -0.451734
v -1.325951 0.567067 -0.257364
v -0.975063 0.666526 -0.141469
v -0.626164 0.512292 -0.171937
v -0.429850 0.381979 -0.674459
v -0.583121 0.092537 -0.872393
v -0.930465 0.014830 -1.012964
v -1.268412 0.194376 -1.013828
v -1.398999 0.526002 -0.874478
v -1.245729 0.815444 -0.676544
v -0.898385 0.893151 -0.535972
v -0.560437 0.713605 -0.535109
v -0.343595 0.535507 -1.000654
v -0.509185 0.254156 -1.200324
v -0.850780 0.204361 -1.365492
v -1.168277 0.415293 -1.399406
v -1.275691 0.763389 -1.282198
v -1.110101 1.044741 -1.082529
v -0.768507 1.094535 -0.917360
v -0.451010 0.883603 -0.883447
v -0.232310 0.646356 -1.298562
v -0.414865 0.377531 -1.500685
v -0.745104 0.361465 -1.693379
v -1.029577 0.607569 -1.763765
v -1.101645 0.971678 -1.670613
v -0.919090 1.240503 -1.468490
v -0.588851 1.256569 -1.275797
v -0.304377 1.010465 -1.205410
v -0.105300 0.712589 -1.557931
v -0.304851 0.460611 -1.765616
v -0.613056 0.480010 -1.991626
v -0.849371 0.759422 -2.103566
v -0.875368 1.135170 -2.035863
v -0.675817 1.387148 -1.828178
v -0.367612 1.367749 -1.602168
v -0.131297 1.088337 -1.490228
v 0.029171 0.738896 -1.772570
v -0.181959 0.505251 -1.990011
v -0.453194 0.554211 -2.255495
v -0.625647 0.857096 -2.413504
v -0.598299 1.236481 -2.371479
v -0.387169 1.470126 -2.154038
v -0.115934 1.421166 -1.888554
v 0.056519 1.118280 -1.730546
v 0.167520 0.732903 -1.943084
v -0.046398 0.514525 -2.173295
v -0.265554 0.578726 -2.480371
v -0.361570 0.887897 -2.684430
v -0.278202 1.260931 -2.665939
v -0.064284 1.479309 -2.435728
v 0.154872 1.415109 -2.128653
v 0.250889 1.105937 -1.924593
v 0.312462 0.699342 -2.075311
v 0.104183 0.489518 -2.318294
v -0.053250 0.550058 -2.661800
v -0.067615 0.845497 -2.904608
v 0.069504 1.202771 -2.904485
v 0.277783 1.412595 -2.661503
v 0.435216 1.352056 -2.317997
v 0.449581 1.056616 -2.075188
v 0.469462 0.636998 -2.174250
v 0.272226 0.428172 -2.427105
v 0.177684 0.467994 -2.795783
v 0.241219 0.733136 -3.064315
v 0.425612 1.068282 -3.075400
v 0.622848 1.277108 -2.822544
v 0.717390 1.237287 -2.453867
v 0.653855 0.972144 -2.185335
v 0.640320 0.542195 -2.239834
v 0.456454 0.328168 -2.498353
v 0.419417 0.336117 -2.879157
v 0.550904 0.561387 -3.159176
v 0.773893 0.872018 -3.174380
v 0.957759 1.086046 -2.915861
v 0.994797 1.078097 -2.535057
v 0.863309 0.852826 -2.255038
v 0.820475 0.414658 -2.268609
v 0.650663 0.190951 -2.528543
v 0.663415 0.161460 -2.909876
v 0.851259 0.343460 -3.189227
v 1.104159 0.630339 -3.202956
v 1.273970 0.854046 -2.943022
v 1.261219 0.883538 -2.561690
v 1.073375 0.701537 -2.282339
v 1.001071 0.259936 -2.257622
v 0.845609 0.023111 -2.514900
v 0.901153 -0.046235 -2.887127
v 1.135167 0.092522 -3.156257
v 1.410568 0.358098 -3.164638
v 1.566030 0.594923 -2.907360
v 1.510485 0.664268 -2.535133
v 1.276472 0.525512 -2.266003
v 1.172055 0.088273 -2.206728
v 1.031391 -0.164773 -2.456984
v 1.124508 -0.275337 -2.811316
v 1.396859 -0.178652 -3.062162
v 1.688904 0.068645 -3.062579
v 1.829568 0.321691 -2.812323
v 1.736451 0.432255 -2.457991
v 1.464100 0.335570 -2.207145
v 1.324165 -0.087721 -2.119154
v 1.198948 -0.360075 -2.357043
v 1.325979 -0.513139 -2.683970
v 1.630844 -0.457250 -2.908426
v 1.934957 -0.225148 -2.898927
v 2.060174 0.047206 -2.661038
v 1.933143 0.200270 -2.334111
v 1.628278 0.144381 -2.109656
v 1.450009 -0.255480 -2.001214
v 1.340850 -0.550059 -2.219742
v 1.498838 -0.746591 -2.507598
v 1.831425 -0.729951 -2.696161
v 2.143785 -0.509887 -2.674972
v 2.252944 -0.215308 -2.456444
v 2.094956 -0.018776 -2.168588
v 1.762369 -0.035415 -1.980025
v 1.544792 -0.404916 -1.861227
v 1.451822 -0.723759 -2.051338
v 1.637234 -0.962951 -2.285552
v 1.992418 -0.982376 -2.426670
v 2.309310 -0.770655 -2.392026
v 2.402280 -0.451811 -2.201916
v 2.216867 -0.212620 -1.967702
v 1.861684 -0.193195 -1.826584
v 1.606646 -0.530625 -1.706935
v 1.528961 -0.873606 -1.857852
v 1.736260 -1.150276 -2.021949
v 2.107110 -1.198565 -2.103099
v 2.424271 -0.990187 -2.053766
v 2.501956 -0.647206 -1.902850
v 2.294657 -0.370536 -1.738753
v 1.923807 -0.322247 -1.657603
v 1.635623 -0.632194 -1.541299
v 1.570980 -0.995618 -1.642246
v 1.791947 -1.297763 -1.721799
v 2.169086 -1.361635 -1.733355
v 2.481472 -1.149819 -1.670146
v 2.546115 -0.786395 -1.569198
v 2.325148 -0.484250 -1.489646
v 1.948009 -0.420378 -1.478090
v 1.630890 -0.710448 -1.359926
v 1.576100 -1.086731 -1.403009
v 1.801161 -1.396022 -1.391483
v 2.174236 -1.457144 -1.332100
v 2.476781 -1.234292 -1.259646
v 2.531571 -0.858009 -1.216564
v 2.306510 -0.548718 -1.228090
v 1.933436 -0.487596 -1.287472
v 1.588677 -0.761720 -1.155036
v 1.540439 -1.140951 -1.137610
v 1.761406 -1.437615 -1.039574
v 2.122138 -1.477930 -0.918356
v 2.411323 -1.238280 -0.844964
v 2.459561 -0.859049 -0.862390
v 2.238595 -0.562385 -0.960426
v 1.877863 -0.522070 -1.081644
v 1.504126 -0.776653 -0.923651
v 1.459238 -1.149254 -0.848817
v 1.670737 -1.418239 -0.677464
v 2.014730 -1.426040 -0.509968
v 2.289709 -1.168087 -0.444446
v 2.334597 -0.795486 -0.519280
v 2.123098 -0.526501 -0.690633
v 1.779105 -0.518700 -0.858129
v 1.374824 -0.745021 -0.671573
v 1.329627 -1.104077 -0.547143
v 1.528148 -1.338319 -0.318743
v 1.854095 -1.310531 -0.120166
v 2.116534 -1.036992 -0.067736
v 2.161730 -0.677936 -0.192166
v 1.963209 -0.443694 -0.420566
v 1.637262 -0.471482 -0.619143
v 1.201998 -0.661385 -0.410921
v 1.152144 -1.003869 -0.247623
v 1.334510 -1.203735 0.023011
v 1.642268 -1.143905 0.242447
v 1.895137 -0.859427 0.282143
v 1.944991 -0.516943 0.118845
v 1.762625 -0.317077 -0.151789
v 1.454867 -0.376907 -0.371225
v 0.989472 -0.527793 -0.155344
v 0.930699 -0.854371 0.035284
v 1.093539 -1.024786 0.336761
v 1.382603 -0.939213 0.572485
v 1.628561 -0.647778 0.604372
v 1.687335 -0.321200 0.413744
v 1.524495 -0.150784 0.112267
v 1.235430 -0.236358 -0.123457
v 0.742273 -0.353391 0.083551
v 0.671781 -0.667085 0.291094
v 0.812026 -0.814180 0.615349
v 1.080853 -0.708510 0.866372
v 1.320788 -0.411976 0.897117
v 1.391279 -0.098282 0.689574
v 1.251035 0.048813 0.365319
v 0.982207 -0.056857 0.114297
v 0.465752 -0.152434 0.297451
v 0.383389 -0.456929 0.514120
v 0.499133 -0.585399 0.855507
v 0.745184 -0.462587 1.121633
v 0.977408 -0.160435 1.156604
v 1.059771 0.144060 0.939935
v 0.944027 0.272530 0.598548
v 0.697976 0.149718 0.332422
v 0.165476 0.057991 0.480844
v 0.074083 -0.240249 0.702534
v 0.165104 -0.351795 1.057104
v 0.385219 -0.211303 1.336850
v 0.605489 0.098927 1.377902
v 0.696881 0.397167 1.156212
v 0.605861 0.508713 0.801642
v 0.385746 0.368222 0.521896
v -0.152053 0.260091 0.630092
v -0.247388 -0.033130 0.856763
v -0.180088 -0.125925 1.221874
v 0.010425 0.036063 1.511549
v 0.212550 0.357943 1.556100
v 0.307886 0.651164 1.329429
v 0.240585 0.743959 0.964318
v 0.050073 0.581971 0.674643
v -0.478188 0.437475 0.743041
v -0.571836 0.150324 0.978031
v -0.527675 0.081188 1.351818
v -0.371572 0.270565 1.645441
v -0.194970 0.607522 1.686901
v -0.101322 0.894673 1.451910
v -0.145484 0.963809 1.078123
v -0.301587 0.774432 0.784500
v -0.801368 0.577447 0.819287
v -0.889358 0.299732 1.067437
v -0.870587 0.260652 1.447657
v -0.756052 0.483099 1.737218
v -0.612845 0.836766 1.766500
v -0.524855 1.114481 1.518349
v -0.543626 1.153562 1.138129
v -0.658162 0.931115 0.848568
v -1.107910 0.673275 0.860495
v -1.189932 0.409670 1.125507
v -1.203618 0.405551 1.507924
v -1.140950 0.663331 1.783730
v -1.038640 1.032005 1.791362
v -0.956618 1.295610 1.526350
v -0.942932 1.299729 1.143934
v -1.005599 1.041950 0.868127
v -1.385077 0.725424 0.870111
v -1.465233 0.479603 1.152235
v -1.523023 0.509953 1.529310
v -1.524593 0.798696 1.780452
v -1.469025 1.176689 1.758544
v -1.388869 1.422510 1.476421
v -1.331079 1.392160 1.099345
v -1.329509 1.103417 0.848204
v -1.625785 0.740139 0.852226
v -1.711051 0.512150 1.147517
v -1.825354 0.568131 1.508415
v -1.901738 0.875289 1.723511
v -1.895458 1.253695 1.666803
v -1.810192 1.481685 1.371512
v -1.695888 1.425704 1.010614
v -1.619504 1.118546 0.795518
v -1.831742 0.724723 0.809499
v -1.928514 0.510047 1.111154
v -2.106161 0.575167 1.443791
v -2.260621 0.881936 1.612556
v -2.301412 1.250654 1.518588
v -2.204640 1.465330 1.216933
v -2.026993 1.400210 0.884296
v -1.872533 1.093441 0.715531
v -2.010563 0.681952 0.741366
v -2.121696 0.473261 1.042272
v -2.359592 0.528536 1.336885
v -2.584894 0.815398 1.452625
v -2.665623 1.165807 1.321694
v -2.554490 1.374498 1.020789
v -2.316594 1.319223 0.726176
v -2.091292 1.032361 0.610435
v -2.167707 0.609131 0.645336
v -2.292280 0.399167 0.940028
v -2.579004 0.429287 1.191679
v -2.859921 0.681848 1.252877
v -2.970474 1.008903 1.087771
v -2.845901 1.218867 0.793079
v -2.559177 1.188747 0.541427
v -2.278260 0.936186 0.480230
v -2.301625 0.503165 0.520876
v -2.436705 0.286340 0.805809
v -2.757876 0.282218 1.013844
v -3.077002 0.493215 1.023116
v -3.207141 0.795731 0.828195
v -3.072062 1.012556 0.543262
v -2.750890 1.016678 0.335228
v -2.431765 0.805681 0.325955
v -2.405953 0.365674 0.371647
v -2.548158 0.137948 0.644348
v -2.890492 0.095356 0.809997
v -3.232422 0.262847 0.771559
v -3.373649 0.542307 0.551552
v -3.231445 0.770033 0.278851
v -2.889110 0.812625 0.113203
v -2.547180 0.645134 0.151640
v -2.474038 0.204000 0.204843
v -2.619974 -0.037890 0.462987
v -2.972294 -0.120836 0.587234
v -3.324614 0.003751 0.504801
v -3.470550 0.262891 0.263977
v -3.324614 0.504781 0.005833
v -2.972294 0.587727 -0.118414
v -2.619974 0.463139 -0.035981
v -2.501744 0.029445 0.029567
v -2.647680 -0.229694 0.270391
v -3.000000 -0.354281 0.352824
v -3.352320 -0.271336 0.228577
v -3.498256 -0.029445 -0.029567
v -3.352320 0.229694 -0.270391
v -3.000000 0.354281 -0.352824
v -2.647680 0.271336 -0.228577
v -2.488446 -0.145129 -0.144458
v -2.629673 -0.424589 0.075550
v -2.971603 -0.592080 0.113987
v -3.313938 -0.549488 -0.051662
v -3.456142 -0.321762 -0.324362
v -3.314915 -0.042301 -0.544369
v -2.972985 0.125190 -0.582807
v -2.630651 0.082597 -0.417158
v -2.437043 -0.307708 -0.307940
v -2.567183 -0.610224 -0.113019
v -2.886308 -0.821221 -0.122292
v -3.207480 -0.817099 -0.330326
v -3.342560 -0.600273 -0.615259
v -3.212420 -0.297757 -0.810180
v -2.893294 -0.086760 -0.800907
v -2.572123 -0.090882 -0.592873
v -2.353000 -0.449562 -0.453318
v -2.463552 -0.776617 -0.288213
v -2.744470 -1.029178 -0.349410
v -3.031194 -1.059298 -0.601061
v -3.155766 -0.849334 -0.895753
v -3.045214 -0.522279 -1.060859
v -2.764297 -0.269718 -0.999662
v -2.477572 -0.239598 -0.748010
v -2.241560 -0.567089 -0.576390
v -2.322290 -0.917498 -0.445458
v -2.547591 -1.204360 -0.561199
v -2.785487 -1.259636 -0.855812
v -2.896621 -1.050945 -1.156717
v -2.815892 -0.700536 -1.287649
v -2.590590 -0.413674 -1.171908
v -2.352694 -0.358398 -0.877295
v -2.103258 -0.660914 -0.676986
v -2.144049 -1.029632 -0.583018
v -2.298509 -1.336401 -0.751782
v -2.476156 -1.401521 -1.084419
v -2.572928 -1.186845 -1.386075
v -2.532137 -0.818127 -1.480043
v -2.377677 -0.511358 -1.311278
v -2.200030 -0.446238 -0.978641
v -1.931740 -0.730910 -0.756755
v -1.925460 -1.109317 -0.700047
v -2.001844 -1.416475 -0.915143
v -2.116148 -1.472456 -1.276041
v -2.201414 -1.244466 -1.571332
v -2.207694 -0.866060 -1.628040
v -2.131310 -0.558902 -1.412944
v -2.017006 -0.502921 -1.052046
v -1.718647 -0.771285 -0.815298
v -1.663079 -1.149278 -0.793390
v -1.664650 -1.438020 -1.044532
v -1.722439 -1.468370 -1.421607
v -1.802595 -1.222550 -1.703731
v -1.858163 -0.844557 -1.725639
v -1.856593 -0.555814 -1.474497
v -1.798803 -0.525464 -1.097422
v -1.461686 -0.771691 -0.848894
v -1.359375 -1.140366 -0.856527
v -1.296708 -1.398146 -1.132333
v -1.310394 -1.394027 -1.514749
v -1.392416 -1.130422 -1.779762
v -1.494727 -0.761747 -1.772129
v -1.557394 -0.503968 -1.496323
v -1.543708 -0.508087 -1.113906
v -1.167537 -0.722981 -0.852322
v -1.024330 -1.076648 -0.881604
v -0.909794 -1.299095 -1.171165
v -0.891023 -1.260015 -1.551384
v -0.979013 -0.982300 -1.799535
v -1.122220 -0.628632 -1.770254
v -1.236756 -0.406185 -1.480693
v -1.255526 -0.445266 -1.100473
v -0.848715 -0.622084 -0.820963
v -0.672114 -0.959040 -0.862422
v -0.516011 -1.148418 -1.156046
v -0.471849 -1.079281 -1.529832
v -0.565498 -0.792130 -1.764823
v -0.742099 -0.455173 -1.723364
v -0.898202 -0.265796 -1.429741
v -0.942364 -0.334932 -1.055954
v -0.518881 -0.473572 -0.751967
v -0.316755 -0.795453 -0.796518
v -0.126243 -0.957441 -1.086192
v -0.058942 -0.864645 -1.451304
v -0.154278 -0.571425 -1.677974
v -0.356403 -0.249544 -1.633424
v -0.546916 -0.087556 -1.343749
v -0.614216 -0.180352 -0.978638
v -0.189757 -0.288549 -0.644567
v 0.030512 -0.598779 -0.685619
v 0.250627 -0.739271 -0.965365
v 0.341648 -0.627725 -1.319935
v 0.250255 -0.329485 -1.541625
v 0.029985 -0.019255 -1.500573
v -0.190130 0.121237 -1.220827
v -0.281150 0.009691 -0.866257
v 0.129655 -0.082460 -0.499796
v 0.361878 -0.384612 -0.534768
v 0.607929 -0.507424 -0.800893
v 0.723673 -0.378954 -1.142281
v 0.641310 -0.074458 -1.358950
v 0.409087 0.227694 -1.323978
v 0.163036 0.350505 -1.057852
v 0.047291 0.222036 -0.716465
v 0.432322 0.127142 -0.320245
v 0.672257 -0.169392 -0.350990
v 0.941085 -0.275062 -0.602013
v 1.081329 -0.127967 -0.926267
v 1.010838 0.185727 -1.133810
v 0.770903 0.482261 -1.103065
v 0.502076 0.587931 -0.852042
v 0.361831 0.440836 -0.527788
v 0.711986 0.322691 -0.110476
v 0.957944 0.031256 -0.142363
v 1.247008 -0.054318 -0.378087
v 1.409848 0.116098 -0.679564
v 1.351075 0.442676 -0.870192
v 1.105117 0.734111 -0.838305
v 0.816052 0.819685 -0.602581
v 0.653212 0.649269 -0.301104
v 0.962447 0.488764 0.122018
v 1.215317 0.204286 0.082322
v 1.523074 0.144456 -0.137114
v 1.705440 0.344323 -0.407748
v 1.655586 0.686806 -0.571046
v 1.402717 0.971285 -0.531350
v 1.094959 1.031114 -0.311914
v 0.912594 0.831248 -0.041280
v 1.177713 0.614421 0.366308
v 1.440151 0.340881 0.313878
v 1.766098 0.313094 0.115301
v 1.964619 0.547336 -0.113100
v 1.919423 0.906391 -0.237530
v 1.656984 1.179931 -0.185100
v 1.331037 1.207718 0.013477
v 1.132516 0.973476 0.241878
v 1.352887 0.695290 0.609257
v 1.627866 0.437337 0.543735
v 1.971859 0.445138 0.376239
v 2.183358 0.714122 0.204886
v 2.138470 1.086724 0.130052
v 1.863491 1.344676 0.195574
v 1.519498 1.336875 0.363070
v 1.307999 1.067891 0.534423
v 1.485595 0.734090 0.839084
v 1.774780 0.494440 0.765692
v 2.135512 0.534755 0.644474
v 2.356478 0.831419 0.546438
v 2.308240 1.210650 0.529012
v 2.019055 1.450300 0.602405
v 1.658323 1.409985 0.723623
v 1.437357 1.113321 0.821659
v 1.577055 0.738078 1.050140
v 1.879600 0.515226 0.977686
v 2.252675 0.576348 0.918303
v 2.477736 0.885639 0.906777
v 2.422945 1.261922 0.949860
v 2.120400 1.484774 1.022314
v 1.747326 1.423652 1.081697
v 1.522264 1.114361 1.093223
v 1.630911 0.713557 1.245363
v 1.943298 0.501741 1.182154
v 2.320436 0.565614 1.193710
v 2.541404 0.867758 1.273262
v 2.476761 1.231183 1.374210
v 2.164374 1.442998 1.437419
v 1.787236 1.379126 1.425863
v 1.566268 1.076982 1.346310
v 1.649735 0.661226 1.432307
v 1.966896 0.452847 1.382974
v 2.337746 0.501137 1.464125
v 2.545045 0.777807 1.628221
v 2.467360 1.120787 1.779138
v 2.150199 1.329166 1.828470
v 1.779349 1.280876 1.747320
v 1.572050 1.004206 1.583224
v 1.633199 0.577537 1.614951
v 1.950092 0.365816 1.580308
v 2.305275 0.385240 1.721426
v 2.490687 0.624432 1.955640
v 2.397717 0.943275 2.145751
v 2.080825 1.154996 2.180394
v 1.725642 1.135572 2.039276
v 1.540229 0.896380 1.805062
v 1.580162 0.460582 1.789748
v 1.892523 0.240517 1.768559
v 2.225110 0.223877 1.957122
v 2.383098 0.420410 2.244978
v 2.273940 0.714989 2.463506
v 1.961579 0.935053 2.484695
v 1.628992 0.951693 2.296132
v 1.471004 0.755161 2.008276
v 1.491501 0.313970 1.948207
v 1.795614 0.081868 1.938708
v 2.100479 0.025979 2.163164
v 2.227510 0.179043 2.490091
v 2.102293 0.451397 2.727980
v 1.798180 0.683499 2.737478
v 1.493315 0.739388 2.513022
v 1.366284 0.586324 2.186095
v 1.371136 0.146620 2.081115
v 1.663182 -0.100677 2.081532
v 1.935533 -0.197361 2.332378
v 2.028650 -0.086797 2.686710
v 1.887986 0.166249 2.936966
v 1.595940 0.413546 2.936549
v 1.323589 0.510230 2.685703
v 1.230472 0.399666 2.331371
v 1.225731 -0.029378 2.181146
v 1.501132 -0.294954 2.189526
v 1.735146 -0.433711 2.458656
v 1.790690 -0.364365 2.830883
v 1.635228 -0.127540 3.088161
v 1.359827 0.138036 3.079780
v 1.125813 0.276792 2.810650
v 1.070269 0.207447 2.438424
v 1.063977 -0.201176 2.243957
v 1.316877 -0.488055 2.257686
v 1.504721 -0.670056 2.537037
v 1.517473 -0.640565 2.918369
v 1.347662 -0.416858 3.178304
v 1.094761 -0.129979 3.164574
v 0.906917 0.052022 2.885223
v 0.894166 0.022531 2.503891
v 0.895531 -0.357587 2.268510
v 1.118519 -0.668218 2.283713
v 1.250007 -0.893488 2.563733
v 1.212970 -0.901438 2.944537
v 1.029103 -0.687410 3.203055
v 0.806115 -0.376779 3.187852
v 0.674627 -0.151509 2.907832
v 0.711664 -0.143559 2.527028
v 0.729032 -0.491465 2.256532
v 0.913425 -0.826611 2.267617
v 0.976960 -1.091753 2.536149
v 0.882418 -1.131575 2.904826
v 0.685181 -0.922749 3.157682
v 0.500788 -0.587603 3.146597
v 0.437254 -0.322460 2.878065
v 0.531796 -0.282639 2.509387
v 0.569016 -0.600925 2.210238
v 0.706135 -0.958200 2.210115
v 0.691770 -1.253639 2.452923
v 0.534337 -1.314178 2.796430
v 0.326058 -1.104355 3.039412
v 0.188940 -0.747080 3.039535
v 0.203304 -0.451641 2.796726
v 0.360737 -0.391102 2.453220
v 0.413844 -0.687042 2.128471
v 0.497212 -1.060076 2.109980
v 0.401196 -1.369248 2.314039
v 0.182040 -1.433449 2.621115
v -0.031878 -1.215071 2.851326
v -0.115246 -0.842037 2.869817
v -0.019230 -0.532865 2.665757
v 0.199926 -0.468664 2.358682
v 0.258394 -0.748125 2.005057
v 0.285742 -1.127509 1.963032
v 0.113289 -1.430395 2.121042
v -0.157945 -1.479355 2.386525
v -0.369076 -1.245710 2.603966
v -0.396424 -0.866325 2.645991
v -0.223971 -0.563440 2.487982
v 0.047264 -0.514480 2.222498
v 0.100470 -0.776397 1.833058
v 0.074473 -1.152146 1.765356
v -0.161842 -1.431558 1.877296
v -0.470047 -1.450957 2.103305
v -0.669598 -1.198979 2.310991
v -0.643601 -0.823230 2.378693
v -0.407286 -0.543819 2.266753
v -0.099081 -0.524420 2.040744
v -0.055667 -0.761218 1.610872
v -0.127734 -1.125327 1.517720
v -0.412208 -1.371431 1.588106
v -0.742447 -1.355365 1.780799
v -0.925002 -1.086541 1.982922
v -0.852934 -0.722432 2.076074
v -0.568460 -0.476328 2.005688
v -0.238221 -0.492394 1.812995
v -0.200930 -0.695076 1.343815
v -0.308344 -1.043172 1.226608
v -0.625841 -1.254104 1.260522
v -0.967435 -1.204309 1.425690
v -1.133025 -0.922958 1.625360
v -1.025611 -0.574862 1.742567
v -0.708114 -0.363930 1.708654
v -0.366520 -0.413724 1.543485
v -0.325069 -0.577437 1.041417
v -0.455655 -0.909062 0.902067
v -0.793603 -1.088609 0.902930
v -1.140947 -1.010901 1.043502
v -1.294218 -0.721459 1.241436
v -1.163631 -0.389834 1.380786
v -0.825683 -0.210287 1.379922
v -0.478339 -0.287995 1.239351
v -0.419600 -0.415259 0.714063
v -0.562129 -0.732837 0.555078
v -0.911028 -0.887071 0.524609
v -1.261916 -0.787612 0.640504
v -1.409249 -0.492722 0.834874
v -1.266720 -0.175144 0.993859
v -0.917821 -0.020910 1.024328
v -0.566933 -0.120369 0.908432
v -0.479017 -0.221350 0.371052
v -0.625300 -0.528524 0.195861
v -0.978459 -0.662845 0.135171
v -1.331618 -0.545630 0.224535
v -1.477902 -0.245541 0.411604
v -1.331618 0.061633 0.586796
v -0.978459 0.195954 0.647485
v -0.625300 0.078739 0.558121
vn 0.9230 -0.3494 -0.1613
vn 0.3823 -0.8027 -0.4578
vn -0.3824 -0.7854 -0.4867
vn -0.9228 -0.3061 -0.2338
vn -0.9226 0.3540 0.1535
vn -0.3821 0.8040 0.4555
vn 0.3824 0.7858 0.4861
vn 0.9232 0.3101 0.2271
vn 0.9114 -0.4042 -0.0776
vn 0.3717 -0.8324 -0.4109
vn -0.3862 -0.7749 -0.5004
vn -0.9177 -0.2626 -0.2981
vn -0.9120 0.4021 0.0812
vn -0.3711 0.8345 0.4073
vn 0.3864 0.7753 0.4997
vn 0.9190 0.2674 0.2897
vn 0.8808 -0.4733 0.0101
vn 0.3382 -0.8721 -0.3536
vn -0.4047 -0.7641 -0.5023
vn -0.9107 -0.2089 -0.3562
vn -0.8848 0.4660 0.0037
vn -0.3365 0.8752 0.3476
vn 0.4052 0.7650 0.5006
vn 0.9141 0.2157 0.3433
vn 0.8245 -0.5568 0.1008
vn 0.2741 -0.9168 -0.2905
vn -0.4418 -0.7452 -0.4995
vn -0.8993 -0.1378 -0.4150
vn -0.8332 0.5471 -0.0800
vn -0.2853 0.9043 0.3175
vn 0.4431 0.7467 0.4960
vn 0.8845 0.1212 0.4506
vn 0.7367 -0.6473 0.1955
vn 0.1785 -0.9576 -0.2262
vn -0.4921 -0.7120 -0.5009
vn -0.8732 -0.0488 -0.4849
vn -0.7475 0.6403 -0.1765
vn -0.1946 0.9473 0.2546
vn 0.4948 0.7137 0.4958
vn 0.8500 0.0337 0.5257
vn 0.6151 -0.7309 0.2958
vn 0.0583 -0.9847 -0.1640
vn -0.5416 -0.6644 -0.5150
vn -0.8169 0.0471 -0.5748
vn -0.6189 0.7297 -0.2907
vn -0.0736 0.9801 0.1844
vn 0.5456 0.6655 0.5093
vn 0.7900 -0.0553 0.6105
vn 0.4612 -0.7910 0.4020
vn -0.0753 -0.9915 -0.1059
vn -0.5737 -0.6111 -0.5453
vn -0.7175 0.1276 -0.6848
vn -0.4453 0.7917 -0.4183
vn 0.0967 0.9918 0.0841
vn 0.5783 0.6112 0.5404
vn 0.7683 -0.1249 0.6278
vn 0.2788 -0.8126 0.5118
vn -0.2125 -0.9758 -0.0524
vn -0.5781 -0.5669 -0.5869
vn -0.5753 0.1682 -0.8005
vn -0.2378 0.8054 -0.5430
vn 0.2397 0.9703 0.0318
vn 0.5826 0.5659 0.5833
vn 0.6399 -0.1800 0.7471
vn 0.0750 -0.7856 0.6141
vn -0.3466 -0.9380 -0.0065
vn -0.5573 -0.5432 -0.6279
vn -0.4080 0.1569 -0.8994
vn -0.0199 0.7651 -0.6436
vn 0.3736 0.9276 -0.0077
vn 0.5614 0.5416 0.6258
vn 0.4718 -0.1814 0.8629
vn -0.1304 -0.7121 0.6898
vn -0.4694 -0.8826 0.0250
vn -0.5226 -0.5416 -0.6584
vn -0.2402 0.1002 -0.9655
vn 0.1899 0.6791 -0.7090
vn 0.4905 0.8709 -0.0317
vn 0.5261 0.5396 0.6573
vn 0.2920 -0.1293 0.9476
vn -0.3148 -0.6090 0.7281
vn -0.5726 -0.8189 0.0386
vn -0.4837 -0.5570 -0.6752
vn -0.0888 0.0150 -0.9959
vn 0.3600 0.5766 -0.7334
vn 0.5867 0.8088 -0.0402
vn 0.4870 0.5545 0.6748
vn 0.1277 -0.0432 0.9909
vn -0.4685 -0.4948 0.7319
vn -0.6535 -0.7560 0.0366
vn -0.4448 -0.5836 -0.6794
vn 0.0413 -0.0841 -0.9956
vn 0.5021 0.4656 -0.7288
vn 0.6622 0.7485 -0.0357
vn 0.4484 0.5805 0.6797
vn -0.0113 0.0577 0.9983
vn -0.5934 -0.3808 0.7091
vn -0.7145 -0.6992 0.0236
vn -0.4064 -0.6187 -0.6724
vn 0.1528 -0.1891 -0.9700
vn 0.6197 0.3541 -0.7004
vn 0.7198 0.6938 -0.0218
vn 0.4106 0.6144 0.6738
vn -0.1275 0.1631 0.9783
vn -0.6961 -0.2707 0.6650
vn -0.7598 -0.6502 0.0032
vn -0.3674 -0.6614 -0.6538
vn 0.2508 -0.2977 -0.9211
vn 0.7184 0.2447 -0.6512
vn 0.7630 0.6463 -0.0012
vn 0.3727 0.6551 0.6572
vn -0.2269 0.2696 0.9359
vn -0.7825 -0.1648 0.6005
vn -0.7929 -0.6089 -0.0230
vn -0.3271 -0.7118 -0.6216
vn 0.3391 -0.4097 -0.8468
vn 0.8029 0.1375 -0.5800
vn 0.7949 0.6062 0.0251
vn 0.3340 0.7023 0.6286
vn -0.3146 0.3766 0.8713
vn -0.8563 -0.0630 0.5126
vn -0.8162 -0.5751 -0.0553
vn -0.2856 -0.7693 -0.5716
vn 0.4194 -0.5239 -0.7413
vn 0.8753 0.0335 -0.4824
vn 0.8173 0.5733 0.0572
vn 0.2944 0.7551 0.5859
vn -0.3934 0.4831 0.7822
vn -0.9183 0.0325 0.3946
vn -0.8297 -0.5500 -0.0952
vn -0.2438 -0.8314 -0.4993
vn 0.4895 -0.6349 -0.5977
vn 0.9339 -0.0624 -0.3520
vn 0.8302 0.5490 0.0966
vn 0.2536 0.8115 0.5265
vn -0.4749 0.6064 0.6377
vn -0.9645 0.1136 0.2384
vn -0.8308 -0.5380 -0.1425
vn -0.2040 -0.8931 -0.4010
vn 0.5440 -0.7302 -0.4133
vn 0.9727 -0.1383 -0.1864
vn 0.8310 0.5374 0.1436
vn 0.2110 0.8694 0.4468
vn -0.5365 0.7079 0.4593
vn -0.9856 0.1629 0.0446
vn -0.8156 -0.5463 -0.1906
vn -0.1687 -0.9460 -0.2767
vn 0.5772 -0.7927 -0.1961
vn 0.9843 -0.1764 0.0048
vn 0.8155 0.5457 0.1926
vn 0.1672 0.9257 0.3392
vn -0.5776 0.7827 0.2318
vn -0.9739 0.1602 -0.1606
vn -0.7841 -0.5789 -0.2236
vn -0.1398 -0.9814 -0.1318
vn 0.5875 -0.8085 0.0334
vn 0.9754 -0.1595 0.1524
vn 0.7832 0.5784 0.2283
vn 0.1474 0.9852 0.0877
vn -0.5892 0.8076 -0.0238
vn -0.9363 0.1037 -0.3355
vn -0.7436 -0.6289 -0.2272
vn -0.1188 -0.9926 0.0234
vn 0.5791 -0.7757 0.2509
vn 0.9461 -0.1063 0.3059
vn 0.7412 0.6293 0.2336
vn 0.1351 0.9881 -0.0736
vn -0.5744 0.7744 -0.2654
vn -0.8889 0.0151 -0.4579
vn -0.7040 -0.6813 -0.2005
vn -0.1075 -0.9786 0.1753
vn 0.5571 -0.7052 0.4385
vn 0.9052 -0.0238 0.4244
vn 0.7012 0.6825 0.2059
vn 0.1291 0.9669 -0.2201
vn -0.5457 0.6991 -0.4620
vn -0.8423 -0.0788 -0.5332
vn -0.6728 -0.7230 -0.1568
vn -0.1086 -0.9444 0.3104
vn 0.5239 -0.6155 0.5889
vn 0.8583 0.0682 0.5085
vn 0.6709 0.7242 0.1595
vn 0.1291 0.9307 -0.3421
vn -0.5115 0.6073 -0.6080
vn -0.7985 -0.1604 -0.5802
vn -0.6520 -0.7496 -0.1142
vn -0.1234 -0.8998 0.4184
vn 0.4800 -0.5247 0.7031
vn 0.7941 0.1635 0.5853
vn 0.6513 0.7500 0.1150
vn 0.1165 0.9046 -0.4100
vn -0.4721 0.5191 -0.7125
vn -0.7544 -0.2243 -0.6169
vn -0.6389 -0.7644 -0.0870
vn -0.1503 -0.8558 0.4950
vn 0.4260 -0.4457 0.7873
vn 0.7500 0.2276 0.6211
vn 0.6387 0.7645 0.0872
vn 0.1468 0.8583 -0.4916
vn -0.4249 0.4449 -0.7884
vn -0.7051 -0.2742 -0.6539
vn -0.6269 -0.7749 -0.0804
vn -0.1837 -0.8201 0.5419
vn 0.3647 -0.3831 0.8487
vn 0.7000 0.2779 0.6578
vn 0.6264 0.7753 0.0808
vn 0.1820 0.8213 -0.5407
vn -0.3710 0.3877 -0.8438
vn -0.6465 -0.3184 -0.6933
vn -0.6079 -0.7888 -0.0908
vn -0.2150 -0.7959 0.5660
vn 0.3006 -0.3344 0.8932
vn 0.6404 0.3227 0.6969
vn 0.6066 0.7897 0.0915
vn 0.2142 0.7964 -0.5655
vn -0.3063 0.3384 -0.8898
vn -0.5765 -0.3663 -0.7304
vn -0.5745 -0.8114 -0.1078
vn -0.2355 -0.7815 0.5778
vn 0.2389 -0.2921 0.9261
vn 0.5691 0.3711 0.7338
vn 0.5721 0.8130 0.1089
vn 0.2350 0.7818 -0.5775
vn -0.2453 0.2963 -0.9231
vn -0.4940 -0.4255 -0.7582
vn -0.5219 -0.8447 -0.1185
vn -0.2396 -0.7717 0.5891
vn 0.1824 -0.2463 0.9519
vn 0.5008 0.4216 0.7560
vn 0.5177 0.8471 0.1199
vn 0.2387 0.7722 -0.5888
vn -0.1917 0.2517 -0.9486
vn -0.3980 -0.4998 -0.7693
vn -0.4486 -0.8868 -0.1110
vn -0.2268 -0.7591 0.6102
vn 0.1289 -0.1874 0.9738
vn 0.4153 0.4912 0.7657
vn 0.4711 0.8756 0.1063
vn 0.2245 0.7602 -0.6097
vn -0.1000 0.1730 -0.9798
vn -0.2853 -0.5868 -0.7578
vn -0.3557 -0.9313 -0.0782
vn -0.2033 -0.7359 0.6458
vn 0.0684 -0.1098 0.9916
vn 0.3089 0.5774 0.7558
vn 0.3869 0.9190 0.0754
vn 0.1990 0.7376 -0.6453
vn -0.0263 0.0931 -0.9953
vn -0.1523 -0.6767 -0.7203
vn -0.2479 -0.9686 -0.0193
vn -0.1816 -0.6975 0.6932
vn -0.0144 -0.0167 0.9998
vn 0.1708 0.6716 0.7209
vn 0.2795 0.9599 0.0203
vn 0.1753 0.6991 -0.6932
vn 0.0620 0.0034 -0.9981
vn 0.0027 -0.7543 -0.6565
vn -0.1321 -0.9894 0.0594
vn -0.1757 -0.6466 0.7423
vn -0.1336 0.0769 0.9881
vn -0.0049 0.7546 0.6561
vn 0.1067 0.9923 -0.0635
vn 0.1688 0.6474 -0.7432
vn 0.1740 -0.0824 -0.9813
vn 0.1781 -0.8031 -0.5686
vn -0.0153 -0.9888 0.1485
vn -0.1944 -0.5947 0.7801
vn -0.2897 0.1465 0.9458
vn -0.2100 0.8023 0.5588
vn -0.0157 0.9873 -0.1581
vn 0.1882 0.5943 -0.7819
vn 0.2115 -0.1483 -0.9661
vn 0.3680 -0.8093 -0.4579
vn 0.0978 -0.9655 0.2413
vn -0.2339 -0.5564 0.7973
vn -0.4637 0.1703 0.8694
vn -0.4199 0.7977 0.4330
vn -0.1282 0.9581 -0.2560
vn 0.2291 0.5552 -0.7995
vn 0.3885 -0.1870 -0.9023
vn 0.5543 -0.7657 -0.3263
vn 0.1998 -0.9211 0.3342
vn -0.2805 -0.5404 0.7933
vn -0.6260 0.1423 0.7668
vn -0.6048 0.7414 0.2908
vn -0.2225 0.9098 -0.3504
vn 0.2771 0.5386 -0.7957
vn 0.5698 -0.1692 -0.8042
vn 0.7096 -0.6800 -0.1845
vn 0.2804 -0.8618 0.4227
vn -0.3215 -0.5452 0.7742
vn -0.7545 0.0741 0.6521
vn -0.7491 0.6466 0.1441
vn -0.2938 0.8504 -0.4365
vn 0.3190 0.5430 -0.7768
vn 0.7197 -0.1033 -0.6865
vn 0.8194 -0.5714 -0.0464
vn 0.3352 -0.7975 0.5016
vn -0.3517 -0.5648 0.7465
vn -0.8436 -0.0170 0.5368
vn -0.8416 0.5400 0.0120
vn -0.3416 0.7883 -0.5118
vn 0.3499 0.5621 -0.7494
vn 0.8240 -0.0105 -0.5664
vn 0.8860 -0.4565 0.0808
vn 0.3668 -0.7363 0.5686
vn -0.3714 -0.5944 0.7133
vn -0.8972 -0.1186 0.4253
vn -0.8969 0.4283 -0.1100
vn -0.3693 0.7295 -0.5757
vn 0.3701 0.5910 -0.7168
vn 0.8872 0.0926 -0.4519
vn 0.9182 -0.3436 0.1971
vn 0.3808 -0.6820 0.6244
vn -0.3813 -0.6321 0.6746
vn -0.9216 -0.2249 0.3164
vn -0.9216 0.3174 -0.2236
vn -0.3813 0.6772 -0.6293
vn 0.3808 0.6272 -0.6794
vn 0.9182 0.1985 -0.3428
vn 0.9225 -0.2350 0.3062
vn 0.3818 -0.6356 0.6710
vn -0.3813 -0.6774 0.6291
vn -0.9195 -0.3347 0.2062
vn -0.9196 0.2087 -0.3327
vn -0.3814 0.6322 -0.6745
vn 0.3822 0.6702 -0.6362
vn 0.9227 0.3052 -0.2356
vn 0.9013 -0.1303 0.4130
vn 0.3722 -0.5968 0.7108
vn -0.3691 -0.7302 0.5749
vn -0.8896 -0.4477 0.0901
vn -0.8912 0.1024 -0.4420
vn -0.3713 0.5944 -0.7133
vn 0.3730 0.7194 -0.5860
vn 0.9023 0.4122 -0.1263
vn 0.8523 -0.0302 0.5222
vn 0.3523 -0.5656 0.7456
vn -0.3407 -0.7897 0.5103
vn -0.8265 -0.5618 -0.0356
vn -0.8318 0.0002 -0.5550
vn -0.3513 0.5641 -0.7473
vn 0.3515 0.7736 -0.5273
vn 0.8552 0.5181 -0.0112
vn 0.7685 0.0617 0.6369
vn 0.3204 -0.5442 0.7754
vn -0.2915 -0.8524 0.4341
vn -0.7231 -0.6692 -0.1711
vn -0.7350 -0.0907 -0.6719
vn -0.3194 0.5434 -0.7763
vn 0.3154 0.8307 -0.4587
vn 0.7541 0.6419 0.1386
vn 0.6410 0.1347 0.7556
vn 0.2761 -0.5381 0.7964
vn -0.2179 -0.9121 0.3471
vn -0.5765 -0.7556 -0.3111
vn -0.5978 -0.1561 -0.7863
vn -0.2751 0.5376 -0.7970
vn 0.2608 0.8886 -0.3773
vn 0.6130 0.7370 0.2847
vn 0.4714 0.1685 0.8657
vn 0.2265 -0.5546 0.8007
vn -0.1203 -0.9602 0.2522
vn -0.3952 -0.8036 -0.4451
vn -0.4300 -0.1780 -0.8851
vn -0.2240 0.5539 -0.8019
vn 0.1795 0.9429 -0.2805
vn 0.4205 0.7975 0.4326
vn 0.2878 0.1466 0.9464
vn 0.1877 -0.5943 0.7820
vn -0.0039 -0.9880 0.1545
vn -0.1995 -0.8026 -0.5621
vn -0.3044 -0.1461 -0.9413
vn -0.1822 0.5940 -0.7835
vn -0.0425 0.9892 -0.1400
vn 0.1998 0.8026 0.5620
vn 0.1294 0.0763 0.9887
vn 0.1734 -0.6469 0.7426
vn 0.1219 -0.9907 0.0610
vn -0.0117 -0.7555 -0.6550
vn -0.1640 -0.0811 -0.9831
vn -0.1665 0.6476 -0.7436
vn -0.1742 0.9833 -0.0524
vn -0.0087 0.7527 0.6583
vn 0.0144 -0.0167 0.9998
vn 0.1844 -0.6968 0.6932
vn 0.2461 -0.9690 -0.0192
vn 0.1532 -0.6765 -0.7203
vn -0.0502 0.0067 -0.9987
vn -0.1791 0.6981 -0.6932
vn -0.2926 0.9560 0.0208
vn -0.1795 0.6691 0.7211
vn -0.0635 -0.1078 0.9921
vn 0.2097 -0.7335 0.6465
vn 0.3589 -0.9301 -0.0779
vn 0.2910 -0.5846 -0.7574
vn 0.0385 0.0979 -0.9945
vn -0.2073 0.7345 -0.6462
vn -0.3916 0.9171 0.0749
vn -0.3106 0.5767 0.7556
vn -0.1214 -0.1836 0.9755
vn 0.2343 -0.7555 0.6118
vn 0.4532 -0.8846 -0.1101
vn 0.4043 -0.4967 -0.7680
vn 0.1276 0.1867 -0.9741
vn -0.2337 0.7558 -0.6117
vn -0.4449 0.8886 0.1118
vn -0.4126 0.4925 0.7663
vn -0.1753 -0.2421 0.9543
vn 0.2461 -0.7680 0.5913
vn 0.5255 -0.8427 -0.1173
vn 0.4983 -0.4230 -0.7568
vn 0.1811 0.2455 -0.9523
vn -0.2458 0.7681 -0.5912
vn -0.5220 0.8447 0.1185
vn -0.4972 0.4237 0.7572
vn -0.2342 -0.2891 0.9282
vn 0.2395 -0.7789 0.5796
vn 0.5755 -0.8107 -0.1073
vn 0.5775 -0.3656 -0.7299
vn 0.2402 0.2930 -0.9254
vn -0.2387 0.7794 -0.5792
vn -0.5740 0.8117 0.1080
vn -0.5709 0.3699 0.7330
vn -0.2993 -0.3335 0.8940
vn 0.2159 -0.7952 0.5666
vn 0.6060 -0.7902 -0.0919
vn 0.6442 -0.3201 -0.6947
vn 0.3057 0.3380 -0.8901
vn -0.2143 0.7963 -0.5656
vn -0.6053 0.7906 0.0923
vn -0.6385 0.3240 0.6981
vn -0.3666 -0.3845 0.8472
vn 0.1820 -0.8213 0.5407
vn 0.6226 -0.7780 -0.0837
vn 0.7002 -0.2778 -0.6577
vn 0.3664 0.3843 -0.8474
vn -0.1795 0.8231 -0.5387
vn -0.6222 0.7784 0.0840
vn -0.6941 0.2822 0.6623
vn -0.4299 -0.4486 0.7836
vn 0.1473 -0.8580 0.4921
vn 0.6335 -0.7682 -0.0921
vn 0.7487 -0.2285 -0.6223
vn 0.4221 0.4428 -0.7910
vn -0.1435 0.8607 -0.4884
vn -0.6326 0.7689 0.0930
vn -0.7403 0.2345 0.6300
vn -0.4841 -0.5277 0.6980
vn 0.1205 -0.9018 0.4149
vn 0.6471 -0.7529 -0.1200
vn 0.7939 -0.1636 -0.5856
vn 0.4710 0.5183 -0.7138
vn -0.1374 0.8898 -0.4353
vn -0.6452 0.7542 0.1222
vn -0.8157 0.1479 0.5592
vn -0.5264 -0.6171 0.5849
vn 0.1075 -0.9450 0.3088
vn 0.6697 -0.7249 -0.1613
vn 0.8404 -0.0800 -0.5361
vn 0.5136 0.6087 -0.6047
vn -0.1252 0.9335 -0.3361
vn -0.6669 0.7266 0.1655
vn -0.8648 0.0638 0.4981
vn -0.5563 -0.7048 0.4402
vn 0.1094 -0.9777 0.1791
vn 0.7035 -0.6815 -0.2015
vn 0.8897 0.0155 -0.4563
vn 0.5505 0.7017 -0.4522
vn -0.1220 0.9710 -0.2054
vn -0.7004 0.6829 0.2074
vn -0.9099 -0.0265 0.4140
vn -0.5749 -0.7745 0.2638
vn 0.1231 -0.9917 0.0364
vn 0.7450 -0.6286 -0.2233
vn 0.9378 0.1041 -0.3312
vn 0.5787 0.7756 -0.2522
vn -0.1142 0.9934 -0.0095
vn -0.7426 0.6291 0.2298
vn -0.9488 -0.1070 0.2971
vn -0.5828 -0.8104 0.0590
vn 0.1437 -0.9835 -0.1096
vn 0.7857 -0.5798 -0.2159
vn 0.9738 0.1603 -0.1614
vn 0.5904 0.8069 -0.0164
vn -0.1378 0.9801 0.1428
vn -0.7845 0.5791 0.2219
vn -0.9556 -0.1669 0.2427
vn -0.5762 -0.8003 -0.1660
vn 0.1691 -0.9529 -0.2519
vn 0.8159 -0.5485 -0.1830
vn 0.9855 0.1664 0.0321
vn 0.5776 0.7841 0.2272
vn -0.1686 0.9438 0.2843
vn -0.8157 0.5471 0.1880
vn -0.9812 -0.1874 0.0463
vn -0.5473 -0.7410 -0.3891
vn 0.2009 -0.9025 -0.3809
vn 0.8302 -0.5400 -0.1384
vn 0.9681 0.1232 0.2184
vn 0.5386 0.7137 0.4479
vn -0.2048 0.8908 0.4057
vn -0.8308 0.5381 0.1424
vn -0.9758 -0.1516 -0.1578
vn -0.4948 -0.6454 -0.5819
vn 0.2392 -0.8404 -0.4863
vn 0.8295 -0.5504 -0.0946
vn 0.9254 0.0455 0.3762
vn 0.4779 0.6123 0.6298
vn -0.2447 0.8296 0.5018
vn -0.8307 0.5481 0.0979
vn -0.9394 -0.0743 -0.3347
vn -0.4253 -0.5332 -0.7313
vn 0.2809 -0.7765 -0.5640
vn 0.8171 -0.5737 -0.0568
vn 0.8648 -0.0501 0.4996
vn 0.4061 0.5029 0.7630
vn -0.2863 0.7681 0.5728
vn -0.8189 0.5708 0.0597
vn -0.8815 0.0233 -0.4717
vn -0.3456 -0.4185 -0.8399
vn 0.3230 -0.7173 -0.6173
vn 0.7950 -0.6061 -0.0251
vn 0.7910 -0.1536 0.5922
vn 0.3254 0.3911 0.8609
vn -0.3275 0.7113 0.6220
vn -0.7978 0.6023 0.0280
vn -0.8099 0.1278 -0.5726
vn -0.2586 -0.3069 -0.9159
vn 0.3638 -0.6657 -0.6516
vn 0.7631 -0.6463 0.0012
vn 0.7044 -0.2611 0.6600
vn 0.2365 0.2809 0.9301
vn -0.3675 0.6613 0.6539
vn -0.7677 0.6408 0.0018
vn -0.7272 0.2340 -0.6453
vn -0.1631 -0.1997 -0.9662
vn 0.4033 -0.6218 -0.6713
vn 0.7195 -0.6942 0.0220
vn 0.6022 -0.3720 0.7063
vn 0.1371 0.1730 0.9753
vn -0.4063 0.6188 0.6723
vn -0.7274 0.6859 -0.0192
vn -0.6322 0.3409 -0.6958
vn -0.0554 -0.0964 -0.9938
vn 0.4427 -0.5855 -0.6791
vn 0.6611 -0.7494 0.0358
vn 0.4790 -0.4858 0.7311
vn 0.0226 0.0677 0.9975
vn -0.4451 0.5834 0.6794
vn -0.6751 0.7370 -0.0344
vn -0.5217 0.4478 -0.7262
vn 0.0704 0.0017 -0.9975
vn 0.4833 -0.5572 -0.6752
vn 0.5844 -0.8104 0.0399
vn 0.3293 -0.5989 0.7300
vn -0.1122 -0.0319 0.9932
vn -0.4850 0.5560 0.6750
vn -0.6085 0.7924 -0.0426
vn -0.3914 0.5526 -0.7358
vn 0.2202 0.0890 -0.9714
vn 0.5253 -0.5401 -0.6576
vn 0.4867 -0.8730 0.0305
vn 0.1509 -0.7012 0.6968
vn -0.2688 -0.1163 0.9562
vn -0.5264 0.5395 0.6572
vn -0.5249 0.8501 -0.0428
vn -0.1953 0.6760 -0.7106
vn 0.3937 0.1514 -0.9067
vn 0.5632 -0.5408 -0.6248
vn 0.3678 -0.9299 0.0047
vn -0.0496 -0.7766 0.6281
vn -0.4395 -0.1690 0.8822
vn -0.5645 0.5403 0.6240
vn -0.4189 0.9075 -0.0320
vn 0.0128 0.7622 -0.6472
vn 0.5718 0.1676 -0.8031
vn 0.5846 -0.5655 -0.5818
vn 0.2318 -0.9720 -0.0378
vn -0.2560 -0.8088 0.5294
vn -0.6041 -0.1736 0.7778
vn -0.5875 0.5649 0.5794
vn -0.2850 0.9585 -0.0030
vn 0.2406 0.8059 -0.5409
vn 0.7201 0.1275 -0.6821
vn 0.5776 -0.6112 -0.5411
vn 0.0873 -0.9918 -0.0938
vn -0.4486 -0.7916 0.4150
vn -0.7024 -0.1282 0.7001
vn -0.5820 0.6112 0.5364
vn -0.0512 0.9902 0.1303
vn 0.4544 0.7913 -0.4091
vn 0.8188 0.0465 -0.5722
vn 0.5420 -0.6645 -0.5145
vn -0.0540 -0.9859 -0.1582
vn -0.6119 -0.7318 0.2999
vn -0.7967 -0.0533 0.6020
vn -0.5458 0.6656 0.5090
vn 0.0851 0.9761 0.1998
vn 0.6264 0.7273 -0.2805
vn 0.8724 -0.0482 -0.4865
vn 0.4900 -0.7108 -0.5046
vn -0.1787 -0.9575 -0.2264
vn -0.7383 -0.6463 0.1928
vn -0.8562 0.0376 0.5153
vn -0.4921 0.7121 0.5008
vn 0.1996 0.9438 0.2633
vn 0.7506 0.6383 -0.1710
vn 0.8970 -0.1351 -0.4208
vn 0.4391 -0.7423 -0.5061
vn -0.2757 -0.9151 -0.2942
vn -0.8270 -0.5541 0.0950
vn -0.8892 0.1264 0.4397
vn -0.4397 0.7430 0.5045
vn 0.2702 0.9208 0.2813
vn 0.8332 0.5472 -0.0801
vn 0.9086 -0.2049 -0.3639
vn 0.4026 -0.7603 -0.5097
vn -0.3395 -0.8698 -0.3580
vn -0.8825 -0.4703 0.0043
vn -0.9103 0.2080 0.3580
vn -0.4027 0.7605 0.5094
vn 0.3377 0.8730 0.3518
vn 0.8838 0.4678 0.0003
vn 0.9166 -0.2587 -0.3050
vn 0.3852 -0.7714 -0.5065
vn -0.3722 -0.8308 -0.4139
vn -0.9120 -0.4022 -0.0811
vn -0.9176 0.2622 0.2988
vn -0.3853 0.7716 0.5061
vn 0.3717 0.8323 0.4111
vn 0.9105 0.4071 0.0724
vn 0.9226 -0.3037 -0.2378
vn 0.3822 -0.7834 -0.4901
vn -0.3823 -0.8027 -0.4578
vn -0.9230 -0.3495 -0.1611
vn -0.9230 0.3078 0.2310
vn -0.3823 0.7842 0.4888
vn 0.3822 0.8034 0.4566
vn 0.9226 0.3536 0.1543
vn 0.9216 -0.3507 -0.1666
vn 0.3796 -0.8022 -0.4608
vn -0.3879 -0.7805 -0.4902
vn -0.9253 -0.2974 -0.2354
vn -0.9211 0.3557 0.1586
vn -0.3793 0.8036 0.4586
vn 0.3879 0.7807 0.4899
vn 0.9257 0.3005 0.2297
vn 0.9064 -0.4098 -0.1026
vn 0.3590 -0.8291 -0.4287
vn -0.4016 -0.7585 -0.5133
vn -0.9231 -0.2358 -0.3038
vn -0.9022 0.4240 0.0786
vn -0.3578 0.8318 0.4244
vn 0.4015 0.7583 0.5136
vn 0.9240 0.2381 0.2992
vn 0.8738 -0.4846 -0.0418
vn 0.3159 -0.8636 -0.3929
vn -0.4291 -0.7312 -0.5304
vn -0.9158 -0.1583 -0.3691
vn -0.8615 0.5078 -0.0010
vn -0.3130 0.8679 0.3856
vn 0.4285 0.7305 0.5317
vn 0.9168 0.1597 0.3659
vn 0.8193 -0.5729 0.0220
vn 0.2493 -0.9022 -0.3520
vn -0.4673 -0.6960 -0.5452
vn -0.8970 -0.0657 -0.4372
vn -0.7928 0.6033 -0.0864
vn -0.2237 0.9253 0.3062
vn 0.4658 0.6951 0.5477
vn 0.9223 0.0862 0.3766
vn 0.7393 -0.6663 0.0980
vn 0.1621 -0.9395 -0.3017
vn -0.5073 -0.6539 -0.5613
vn -0.8563 0.0336 -0.5154
vn -0.6917 0.6986 -0.1830
vn -0.1200 0.9617 0.2462
vn 0.5047 0.6531 0.5646
vn 0.8996 -0.0164 0.4364
vn 0.6301 -0.7514 0.1956
vn 0.0577 -0.9696 -0.2377
vn -0.5388 -0.6099 -0.5811
vn -0.7833 0.1239 -0.6092
vn -0.5562 0.7770 -0.2948
vn -0.0011 0.9832 0.1824
vn 0.5355 0.6097 0.5843
vn 0.8479 -0.1184 0.5167
vn 0.4869 -0.8132 0.3190
vn -0.0637 -0.9850 -0.1605
vn -0.5542 -0.5715 -0.6052
vn -0.6729 0.1859 -0.7160
vn -0.3882 0.8212 -0.4182
vn 0.0935 0.9858 0.1394
vn 0.5513 0.5721 0.6073
vn 0.6878 -0.1885 0.7010
vn 0.3042 -0.8343 0.4598
vn -0.2004 -0.9764 -0.0802
vn -0.5514 -0.5455 -0.6311
vn -0.5304 0.2039 -0.8229
vn -0.1961 0.8190 -0.5392
vn 0.2320 0.9706 0.0647
vn 0.5497 0.5462 0.6320
vn 0.5559 -0.2136 0.8034
vn 0.0904 -0.8014 0.5913
vn -0.3419 -0.9396 -0.0138
vn -0.5334 -0.5354 -0.6548
vn -0.3718 0.1744 -0.9118
vn 0.0041 0.7695 -0.6387
vn 0.3679 0.9298 0.0061
vn 0.5332 0.5355 0.6549
vn 0.4030 -0.1921 0.8948
vn -0.1255 -0.7185 0.6841
vn -0.4714 -0.8815 0.0274
vn -0.5057 -0.5406 -0.6723
vn -0.2155 0.1072 -0.9706
vn 0.1876 0.6869 -0.7021
vn 0.4891 0.8717 -0.0294
vn 0.5066 0.5399 0.6722
vn 0.2459 -0.1295 0.9606
vn -0.3158 -0.6073 0.7290
vn -0.5779 -0.8150 0.0437
vn -0.4731 -0.5581 -0.6817
vn -0.0737 0.0172 -0.9971
vn 0.3596 0.5781 -0.7325
vn 0.5886 0.8073 -0.0427
vn 0.4746 0.5566 0.6818
vn 0.1000 -0.0406 0.9942
vn -0.4717 -0.4881 0.7343
vn -0.6596 -0.7505 0.0414
vn -0.4379 -0.5852 -0.6825
vn 0.0503 -0.0835 -0.9952
vn 0.5027 0.4630 -0.7300
vn 0.6658 0.7450 -0.0394
vn 0.4400 0.5829 0.6831
vn -0.0279 0.0604 0.9978
vn -0.5971 -0.3713 0.7110
vn -0.7202 -0.6932 0.0270
vn -0.4006 -0.6205 -0.6741
vn 0.1587 -0.1891 -0.9691
vn 0.6206 0.3493 -0.7020
vn 0.7239 0.6895 -0.0249
vn 0.4031 0.6173 0.6756
vn -0.1387 0.1655 0.9764
vn -0.6997 -0.2597 0.6656
vn -0.7643 -0.6449 0.0050
vn -0.3605 -0.6642 -0.6550
vn 0.2560 -0.2978 -0.9196
vn 0.7193 0.2391 -0.6523
vn 0.7664 0.6423 -0.0029
vn 0.3635 0.6595 0.6579
vn -0.2369 0.2722 0.9326
vn -0.7856 -0.1536 0.5994
vn -0.7952 -0.6060 -0.0227
vn -0.3165 -0.7166 -0.6215
vn 0.3461 -0.4100 -0.8439
vn 0.8035 0.1328 -0.5804
vn 0.7965 0.6041 0.0247
vn 0.3200 0.7102 0.6271
vn -0.3266 0.3803 0.8653
vn -0.8584 -0.0539 0.5101
vn -0.8145 -0.5775 -0.0550
vn -0.2683 -0.7778 -0.5683
vn 0.4305 -0.5241 -0.7349
vn 0.8754 0.0323 -0.4823
vn 0.8153 0.5762 0.0570
vn 0.2717 0.7696 0.5778
vn -0.4110 0.4893 0.7692
vn -0.9187 0.0350 0.3934
vn -0.8220 -0.5622 -0.0907
vn -0.2169 -0.8455 -0.4880
vn 0.5073 -0.6339 -0.5838
vn 0.9337 -0.0559 -0.3536
vn 0.8224 0.5613 0.0926
vn 0.2189 0.8364 0.5025
vn -0.4809 0.5754 0.6616
vn -0.9637 0.1031 0.2461
vn -0.8163 -0.5639 -0.1256
vn -0.1660 -0.9122 -0.3745
vn 0.5699 -0.7251 -0.3867
vn 0.9736 -0.1191 -0.1947
vn 0.8163 0.5635 0.1270
vn 0.1653 0.9047 0.3927
vn -0.5523 0.6641 0.5039
vn -0.9881 0.1355 0.0728
vn -0.7965 -0.5852 -0.1519
vn -0.1219 -0.9659 -0.2283
vn 0.6096 -0.7778 -0.1531
vn 0.9897 -0.1421 -0.0179
vn 0.7965 0.5853 0.1517
vn 0.1185 0.9621 0.2456
vn -0.6113 0.7323 0.3000
vn -0.9868 0.1206 -0.1080
vn -0.7656 -0.6231 -0.1601
vn -0.0905 -0.9940 -0.0613
vn 0.6217 -0.7780 0.0907
vn 0.9735 -0.1148 0.1976
vn 0.7663 0.6229 0.1576
vn 0.0500 0.9827 0.1781
vn -0.6456 0.7615 0.0575
vn -0.9613 0.0619 -0.2685
vn -0.7299 -0.6676 -0.1470
vn -0.0743 -0.9915 0.1064
vn 0.6092 -0.7288 0.3127
vn 0.9362 -0.0427 0.3489
vn 0.7317 0.6664 0.1430
vn 0.0247 0.9997 -0.0042
vn -0.6475 0.7383 -0.1890
vn -0.9197 -0.0201 -0.3921
vn -0.6969 -0.7071 -0.1195
vn -0.0734 -0.9640 0.2554
vn 0.5790 -0.6499 0.4923
vn 0.8899 0.0453 0.4540
vn 0.6991 0.7055 0.1159
vn 0.0254 0.9835 -0.1793
vn -0.6207 0.6727 -0.4028
vn -0.8705 -0.1028 -0.4814
vn -0.6714 -0.7355 -0.0908
vn -0.0869 -0.9235 0.3736
vn 0.5371 -0.5648 0.6265
vn 0.8433 0.1263 0.5223
vn 0.6730 0.7343 0.0888
vn 0.0481 0.9445 -0.3249
vn -0.5734 0.5892 -0.5693
vn -0.8179 -0.1731 -0.5487
vn -0.6538 -0.7532 -0.0726
vn -0.1126 -0.8817 0.4582
vn 0.4862 -0.4896 0.7238
vn 0.8124 0.1779 0.5553
vn 0.6544 0.7527 0.0721
vn 0.1107 0.8829 -0.4562
vn -0.5126 0.5083 -0.6920
vn -0.7629 -0.2287 -0.6047
vn -0.6408 -0.7645 -0.0696
vn -0.1468 -0.8457 0.5132
vn 0.4281 -0.4289 0.7955
vn 0.7580 0.2328 0.6093
vn 0.6407 0.7646 0.0697
vn 0.1448 0.8469 -0.5116
vn -0.4439 0.4401 -0.7806
vn -0.7054 -0.2743 -0.6536
vn -0.6272 -0.7749 -0.0790
vn -0.1832 -0.8172 0.5465
vn 0.3650 -0.3790 0.8504
vn 0.7005 0.2782 0.6572
vn 0.6266 0.7753 0.0793
vn 0.1817 0.8181 -0.5456
vn -0.3709 0.3830 -0.8460
vn -0.6457 -0.3181 -0.6942
vn -0.6075 -0.7890 -0.0923
vn -0.2149 -0.7944 0.5681
vn 0.3007 -0.3318 0.8942
vn 0.6399 0.3224 0.6976
vn 0.6062 0.7898 0.0929
vn 0.2142 0.7949 -0.5677
vn -0.3061 0.3352 -0.8910
vn -0.5844 -0.3688 -0.7228
vn -0.5776 -0.8102 -0.0995
vn -0.2364 -0.7735 0.5880
vn 0.2384 -0.2785 0.9304
vn 0.5762 0.3743 0.7265
vn 0.5749 0.8120 0.1004
vn 0.2363 0.7736 -0.5880
vn -0.2433 0.2813 -0.9283
vn -0.5200 -0.4330 -0.7363
vn -0.5349 -0.8399 -0.0921
vn -0.2452 -0.7501 0.6142
vn 0.1787 -0.2119 0.9608
vn 0.4911 0.4502 0.7458
vn 0.5296 0.8431 0.0934
vn 0.2459 0.7498 -0.6143
vn -0.1827 0.2138 -0.9596
vn -0.4476 -0.5128 -0.7326
vn -0.4772 -0.8763 -0.0665
vn -0.2431 -0.7204 0.6496
vn 0.1169 -0.1289 0.9847
vn 0.3962 0.5388 0.7435
vn 0.4378 0.8963 0.0705
vn 0.2450 0.7196 -0.6497
vn -0.1660 0.1479 -0.9750
vn -0.3585 -0.6040 -0.7118
vn -0.4025 -0.9151 -0.0243
vn -0.2361 -0.6826 0.6916
vn 0.0433 -0.0327 0.9985
vn 0.2801 0.6359 0.7192
vn 0.3439 0.9387 0.0224
vn 0.2394 0.6816 -0.6914
vn -0.1168 0.0529 -0.9917
vn -0.2425 -0.6963 -0.6756
vn -0.3088 -0.9507 0.0292
vn -0.2318 -0.6391 0.7334
vn -0.0539 0.0657 0.9964
vn 0.1359 0.7275 0.6725
vn 0.2360 0.9708 -0.0420
vn 0.2362 0.6384 -0.7325
vn -0.0443 -0.0513 -0.9977
vn -0.0907 -0.7754 -0.6249
vn -0.1942 -0.9768 0.0900
vn -0.2369 -0.5961 0.7671
vn -0.1823 0.1487 0.9719
vn -0.0385 0.7963 0.6037
vn 0.1629 0.9815 -0.1006
vn 0.2411 0.5962 -0.7658
vn 0.0642 -0.1489 -0.9868
vn 0.1008 -0.8256 -0.5552
vn -0.0615 -0.9852 0.1600
vn -0.2539 -0.5612 0.7877
vn -0.3375 0.1972 0.9204
vn -0.2350 0.8260 0.5124
vn 0.0287 0.9837 -0.1773
vn 0.2567 0.5619 -0.7864
vn 0.3134 -0.2018 -0.9279
vn 0.3209 -0.8296 -0.4569
vn 0.0756 -0.9672 0.2425
vn -0.2804 -0.5403 0.7934
vn -0.5015 0.1990 0.8419
vn -0.4338 0.8075 0.3998
vn -0.1020 0.9596 -0.2624
vn 0.2815 0.5409 -0.7926
vn 0.4706 -0.2116 -0.8566
vn 0.5350 -0.7784 -0.3285
vn 0.1961 -0.9220 0.3338
vn -0.3104 -0.5355 0.7854
vn -0.6505 0.1554 0.7434
vn -0.6101 0.7441 0.2722
vn -0.2125 0.9118 -0.3513
vn 0.3103 0.5354 -0.7855
vn 0.6217 -0.1752 -0.7634
vn 0.7061 -0.6834 -0.1853
vn 0.2855 -0.8596 0.4237
vn -0.3382 -0.5452 0.7671
vn -0.7681 0.0790 0.6354
vn -0.7445 0.6521 0.1433
vn -0.2936 0.8504 -0.4365
vn 0.3375 0.5443 -0.7680
vn 0.7470 -0.1020 -0.6570
vn 0.8219 -0.5678 -0.0455
vn 0.3425 -0.7929 0.5040
vn -0.3606 -0.5661 0.7412
vn -0.8503 -0.0156 0.5261
vn -0.8416 0.5399 0.0120
vn -0.3458 0.7860 -0.5125
vn 0.3600 0.5644 -0.7428
vn 0.8370 -0.0077 -0.5471
vn 0.8899 -0.4487 0.0826
vn 0.3736 -0.7305 0.5717
vn -0.3767 -0.5960 0.7091
vn -0.9005 -0.1183 0.4184
vn -0.8986 0.4248 -0.1100
vn -0.3744 0.7257 -0.5773
vn 0.3763 0.5935 -0.7114
vn 0.8934 0.0952 -0.4390
vn 0.9214 -0.3335 0.1995
vn 0.3859 -0.6761 0.6277
vn -0.3856 -0.6341 0.6702
vn -0.9233 -0.2250 0.3112
vn -0.9233 0.3121 -0.2237
vn -0.3856 0.6728 -0.6314
vn 0.3859 0.6305 -0.6735
vn 0.9214 0.2009 -0.3326
vn 0.9243 -0.2237 0.3092
vn 0.3847 -0.6308 0.6738
vn -0.3860 -0.6806 0.6227
vn -0.9207 -0.3348 0.2005
vn -0.9208 0.2032 -0.3330
vn -0.3839 0.6285 -0.6764
vn 0.3876 0.6755 -0.6273
vn 0.9244 0.3080 -0.2248
vn 0.9013 -0.1195 0.4163
vn 0.3729 -0.5952 0.7118
vn -0.3746 -0.7361 0.5638
vn -0.8904 -0.4479 0.0812
vn -0.8914 0.0985 -0.4423
vn -0.3717 0.5936 -0.7138
vn 0.3787 0.7291 -0.5702
vn 0.9023 0.4166 -0.1107
vn 0.8509 -0.0227 0.5248
vn 0.3515 -0.5708 0.7421
vn -0.3462 -0.7999 0.4902
vn -0.8258 -0.5617 -0.0511
vn -0.8319 0.0011 -0.5549
vn -0.3501 0.5696 -0.7437
vn 0.3543 0.7912 -0.4984
vn 0.8507 0.5254 0.0148
vn 0.7689 0.0607 0.6364
vn 0.3219 -0.5606 0.7629
vn -0.2934 -0.8683 0.3999
vn -0.7181 -0.6673 -0.1976
vn -0.7377 -0.0805 -0.6703
vn -0.3204 0.5599 -0.7641
vn 0.3067 0.8595 -0.4089
vn 0.7842 0.6065 0.1310
vn 0.6523 0.1186 0.7486
vn 0.2879 -0.5688 0.7704
vn -0.2099 -0.9323 0.2946
vn -0.5631 -0.7479 -0.3516
vn -0.6094 -0.1318 -0.7819
vn -0.2870 0.5686 -0.7709
vn 0.2268 0.9258 -0.3024
vn 0.6691 0.6899 0.2764
vn 0.5057 0.1361 0.8519
vn 0.2576 -0.5964 0.7602
vn -0.0959 -0.9786 0.1822
vn -0.3701 -0.7840 -0.4984
vn -0.4591 -0.1391 -0.8774
vn -0.2585 0.5964 -0.7599
vn 0.1113 0.9761 -0.1867
vn 0.5055 0.7474 0.4311
vn 0.3475 0.1051 0.9318
vn 0.2401 -0.6378 0.7318
vn 0.0379 -0.9965 0.0744
vn -0.1641 -0.7663 -0.6211
vn -0.2624 -0.0942 -0.9604
vn -0.2434 0.6373 -0.7312
vn 0.0832 0.9922 -0.0926
vn 0.3022 0.7596 0.5760
vn 0.2024 0.0359 0.9786
vn 0.2389 -0.6818 0.6915
vn 0.1738 -0.9846 -0.0168
vn 0.0268 -0.7046 -0.7091
vn -0.1238 -0.0138 -0.9922
vn -0.2434 0.6804 -0.6912
vn -0.0671 0.9977 0.0131
vn 0.0911 0.7200 0.6880
vn 0.0837 -0.0485 0.9953
vn 0.2490 -0.7179 0.6500
vn 0.2967 -0.9513 -0.0831
vn 0.1862 -0.6212 -0.7612
vn -0.0214 0.0739 -0.9970
vn -0.2527 0.7164 -0.6503
vn -0.2161 0.9723 0.0893
vn -0.0981 0.6456 0.7573
vn -0.0113 -0.1279 0.9917
vn 0.2604 -0.7424 0.6173
vn 0.3983 -0.9092 -0.1211
vn 0.3132 -0.5382 -0.7825
vn 0.0535 0.1495 -0.9873
vn -0.2622 0.7415 -0.6176
vn -0.3459 0.9291 0.1310
vn -0.2551 0.5612 0.7874
vn -0.0923 -0.1931 0.9768
vn 0.2641 -0.7574 0.5972
vn 0.4769 -0.8688 -0.1329
vn 0.4158 -0.4678 -0.7800
vn 0.0999 0.1977 -0.9752
vn -0.2644 0.7572 -0.5973
vn -0.4743 0.8702 0.1337
vn -0.3826 0.4840 0.7870
vn -0.1665 -0.2446 0.9552
vn 0.2562 -0.7678 0.5872
vn 0.5352 -0.8354 -0.1254
vn 0.5024 -0.4114 -0.7605
vn 0.1725 0.2486 -0.9531
vn -0.2559 0.7680 -0.5871
vn -0.5331 0.8366 0.1263
vn -0.4863 0.4204 0.7660
vn -0.2359 -0.2887 0.9279
vn 0.2385 -0.7790 0.5800
vn 0.5775 -0.8091 -0.1087
vn 0.5782 -0.3634 -0.7305
vn 0.2414 0.2926 -0.9253
vn -0.2378 0.7795 -0.5796
vn -0.5763 0.8099 0.1094
vn -0.5719 0.3672 0.7335
vn -0.2980 -0.3339 0.8943
vn 0.2164 -0.7951 0.5665
vn 0.6092 -0.7875 -0.0937
vn 0.6457 -0.3151 -0.6956
vn 0.3042 0.3385 -0.8905
vn -0.2150 0.7963 -0.5654
vn -0.6088 0.7878 0.0941
vn -0.6406 0.3184 0.6988
vn -0.3497 -0.3884 0.8525
vn 0.1968 -0.8192 0.5387
vn 0.6364 -0.7662 -0.0894
vn 0.7059 -0.2580 -0.6596
vn 0.3648 0.3999 -0.8409
vn -0.1941 0.8214 -0.5363
vn -0.6364 0.7661 0.0893
vn -0.7020 0.2605 0.6628
vn -0.3897 -0.4579 0.7990
vn 0.1845 -0.8514 0.4909
vn 0.6640 -0.7411 -0.0999
vn 0.7604 -0.1860 -0.6222
vn 0.4165 0.4781 -0.7732
vn -0.1803 0.8552 -0.4860
vn -0.6646 0.7406 0.0991
vn -0.7577 0.1877 0.6250
vn -0.4199 -0.5424 0.7277
vn 0.1803 -0.8892 0.4204
vn 0.6948 -0.7086 -0.1229
vn 0.8109 -0.0979 -0.5770
vn 0.4589 0.5708 -0.6809
vn -0.1550 0.9111 -0.3820
vn -0.6960 0.7078 0.1209
vn -0.7743 0.1180 0.6217
vn -0.4457 -0.6353 0.6306
vn 0.1803 -0.9276 0.3272
vn 0.7284 -0.6685 -0.1504
vn 0.8589 0.0006 -0.5121
vn 0.4938 0.6679 -0.5569
vn -0.1526 0.9510 -0.2691
vn -0.7300 0.6675 0.1469
vn -0.8139 0.0186 0.5807
vn -0.4738 -0.7249 0.5001
vn 0.1786 -0.9608 0.2120
vn 0.7620 -0.6244 -0.1718
vn 0.9048 0.0960 -0.4149
vn 0.5242 0.7539 -0.3962
vn -0.1558 0.9781 -0.1383
vn -0.7634 0.6239 0.1674
vn -0.8565 -0.0856 0.5090
vn -0.5077 -0.7962 0.3291
vn 0.1729 -0.9821 0.0752
vn 0.7924 -0.5832 -0.1789
vn 0.9454 0.1695 -0.2783
vn 0.5498 0.8112 -0.1993
vn -0.1678 0.9850 -0.0404
vn -0.7930 0.5836 0.1748
vn -0.9019 -0.1765 0.3942
vn -0.5417 -0.8328 0.1138
vn 0.1688 -0.9824 -0.0798
vn 0.8162 -0.5525 -0.1688
vn 0.9731 0.2033 -0.1087
vn 0.5643 0.8253 0.0233
vn -0.1693 0.9787 0.1164
vn -0.8163 0.5532 0.1662
vn -0.9680 -0.2103 0.1372
vn -0.5586 -0.8186 -0.1337
vn 0.1766 -0.9548 -0.2390
vn 0.8311 -0.5370 -0.1446
vn 0.9791 0.1891 0.0743
vn 0.5585 0.7908 0.2504
vn -0.1820 0.9459 0.2687
vn -0.8310 0.5373 0.1438
vn -0.9781 -0.2044 -0.0389
vn -0.5427 -0.7505 -0.3772
vn 0.2008 -0.9024 -0.3812
vn 0.8358 -0.5373 -0.1129
vn 0.9600 0.1328 0.2467
vn 0.5279 0.7152 0.4580
vn -0.2080 0.8923 0.4006
vn -0.8360 0.5369 0.1134
vn -0.9648 -0.1541 -0.2133
vn -0.4946 -0.6461 -0.5813
vn 0.2373 -0.8373 -0.4925
vn 0.8307 -0.5510 -0.0797
vn 0.9183 0.0489 0.3928
vn 0.4763 0.6156 0.6278
vn -0.2440 0.8289 0.5035
vn -0.8313 0.5499 0.0808
vn -0.9277 -0.0721 -0.3662
vn -0.4259 -0.5279 -0.7348
vn 0.2795 -0.7713 -0.5718
vn 0.8166 -0.5752 -0.0480
vn 0.8595 -0.0492 0.5088
vn 0.4066 0.5015 0.7637
vn -0.2848 0.7652 0.5774
vn -0.8179 0.5732 0.0494
vn -0.8720 0.0260 -0.4888
vn -0.3457 -0.4097 -0.8442
vn 0.3226 -0.7113 -0.6244
vn 0.7938 -0.6078 -0.0189
vn 0.7870 -0.1535 0.5976
vn 0.3263 0.3868 0.8625
vn -0.3266 0.7071 0.6271
vn -0.7960 0.6049 0.0204
vn -0.8022 0.1303 -0.5826
vn -0.2577 -0.2963 -0.9197
vn 0.3643 -0.6600 -0.6571
vn 0.7610 -0.6487 0.0073
vn 0.7007 -0.2612 0.6639
vn 0.2372 0.2754 0.9316
vn -0.3674 0.6571 0.6582
vn -0.7645 0.6445 -0.0060
vn -0.7198 0.2365 -0.6526
vn -0.1610 -0.1883 -0.9688
vn 0.4043 -0.6178 -0.6744
vn 0.7154 -0.6981 0.0301
vn 0.5972 -0.3722 0.7105
vn 0.1373 0.1677 0.9762
vn -0.4068 0.6158 0.6748
vn -0.7210 0.6924 -0.0294
vn -0.6226 0.3441 -0.7028
vn -0.0522 -0.0862 -0.9949
vn 0.4426 -0.5857 -0.6790
vn 0.6522 -0.7565 0.0476
vn 0.4701 -0.4861 0.7367
vn 0.0224 0.0649 0.9976
vn -0.4448 0.5842 0.6789
vn -0.6609 0.7489 -0.0486
vn -0.5054 0.4530 -0.7345
vn 0.0728 0.0071 -0.9973
vn 0.4785 -0.5656 -0.6717
vn 0.5659 -0.8225 0.0563
vn 0.3122 -0.5985 0.7378
vn -0.1115 -0.0285 0.9934
vn -0.4805 0.5646 0.6711
vn -0.5783 0.8136 -0.0604
vn -0.3608 0.5612 -0.7449
vn 0.2168 0.0835 -0.9726
vn 0.5090 -0.5612 -0.6527
vn 0.4517 -0.8908 0.0500
vn 0.1205 -0.6979 0.7059
vn -0.2644 -0.1018 0.9590
vn -0.5105 0.5606 0.6520
vn -0.4669 0.8824 -0.0585
vn -0.2214 0.6362 -0.7391
vn 0.3765 0.1296 -0.9173
vn 0.5276 -0.5760 -0.6244
vn 0.3104 -0.9503 0.0228
vn -0.0973 -0.7656 0.6359
vn -0.4264 -0.1396 0.8937
vn -0.5280 0.5759 0.6241
vn -0.3248 0.9452 -0.0342
vn -0.0264 0.7129 -0.7008
vn 0.5372 0.1310 -0.8332
vn 0.5268 -0.6092 -0.5928
vn 0.1520 -0.9880 -0.0269
vn -0.3193 -0.7840 0.5324
vn -0.5786 -0.1309 0.8050
vn -0.5255 0.6091 0.5940
vn -0.1618 0.9867 0.0167
vn 0.1968 0.7573 -0.6227
vn 0.6754 0.0852 -0.7325
vn 0.5039 -0.6528 -0.5657
vn -0.0058 -0.9956 -0.0934
vn -0.5180 -0.7497 0.4118
vn -0.7380 -0.0699 0.6712
vn -0.5014 0.6520 0.5688
vn -0.0647 0.9979 -0.0025
vn 0.4196 0.7517 -0.5088
vn 0.7750 0.0083 -0.6319
vn 0.4658 -0.6950 -0.5477
vn -0.1448 -0.9753 -0.1668
vn -0.6743 -0.6780 0.2926
vn -0.8198 0.0158 0.5724
vn -0.4635 0.6935 0.5516
vn 0.0956 0.9921 0.0811
vn 0.6076 0.6978 -0.3793
vn 0.8375 -0.0762 -0.5411
vn 0.4258 -0.7274 -0.5382
vn -0.2523 -0.9377 -0.2390
vn -0.7839 -0.5926 0.1850
vn -0.8645 0.1010 0.4923
vn -0.4245 0.7260 0.5410
vn 0.2237 0.9591 0.1735
vn 0.7450 0.6175 -0.2523
vn 0.8751 -0.1514 -0.4597
vn 0.3962 -0.7482 -0.5322
vn -0.3241 -0.8952 -0.3059
vn -0.8537 -0.5131 0.0892
vn -0.8884 0.1707 0.4262
vn -0.3958 0.7476 0.5333
vn 0.3233 0.8964 0.3033
vn 0.8346 0.5341 -0.1348
vn 0.8990 -0.2116 -0.3833
vn 0.3822 -0.7611 -0.5241
vn -0.3636 -0.8568 -0.3656
vn -0.8942 -0.4476 0.0012
vn -0.9009 0.2159 0.3764
vn -0.3822 0.7611 0.5241
vn 0.3631 0.8582 0.3629
vn 0.8868 0.4613 -0.0276
vn 0.9150 -0.2597 -0.3086
vn 0.3810 -0.7712 -0.5100
vn -0.3796 -0.8259 -0.4169
vn -0.9151 -0.3948 -0.0822
vn -0.9159 0.2637 0.3025
vn -0.3810 0.7715 0.5095
vn 0.3795 0.8270 0.4149
vn 0.9139 0.3990 0.0745
vn 0.9233 -0.3032 -0.2357
vn 0.3837 -0.7836 -0.4886
vn -0.3837 -0.8016 -0.4585
vn -0.9236 -0.3478 -0.1614
vn -0.9236 0.3072 0.2293
vn -0.3837 0.7843 0.4875
vn 0.3837 0.8022 0.4574
vn 0.9233 0.3514 0.1548
s 0
f 2//1 9//1 1//1
f 3//2 10//2 2//2
f 4//3 11//3 3//3
f 5//4 12//4 4//4
f 14//5 5//5 6//5
f 15//6 6//6 7//6
f 16//7 7//7 8//7
f 9//8 8//8 1//8
f 10//9 17//9 9//9
f 11//10 18//10 10//10
f 12//11 19//11 11//11
f 13//12 20//12 12//12
f 14//13 21//13 13//13
f 23//14 14//14 15//14
f 24//15 15//15 16//15
f 17//16 16//16 9//16
f 18//17 25//17 17//17
f 19//18 26//18 18//18
f 20//19 27//19 19//19
f 21//20 28//20 20//20
f 22//21 29//21 21//21
f 31//22 22//22 23//22
f 32//23 23//23 24//23
f 25//24 24//24 17//24
f 26//25 33//25 25//25
f 27//26 34//26 26//26
f 28//27 35//27 27//27
f 29//28 36//28 28//28
f 30//29 37//29 29//29
f 31//30 38//30 30//30
f 40//31 31//31 32//31
f 25//32 40//32 32//32
f 34//33 41//33 33//33
f 35//34 42//34 34//34
f 36//35 43//35 35//35
f 37//36 44//36 36//36
f 38//37 45//37 37//37
f 39//38 46//38 38//38
f 48//39 39//39 40//39
f 33//40 48//40 40//40
f 42//41 49//41 41//41
f 43//42 50//42 42//42
f 44//43 51//43 43//43
f 45//44 52//44 44//44
f 46//45 53//45 45//45
f 47//46 54//46 46//46
f 56//47 47//47 48//47
f 41//48 56//48 48//48
f 50//49 57//49 49//49
f 51//50 58//50 50//50
f 52//51 59//51 51//51
f 53//52 60//52 52//52
f 54//53 61//53 53//53
f 63//54 54//54 55//54
f 64//55 55//55 56//55
f 57//56 56//56 49//56
f 58//57 65//57 57//57
f 59//58 66//58 58//58
f 60//59 67//59 59//59
f 61//60 68//60 60//60
f 62//61 69//61 61//61
f 71//62 62//62 63//62
f 72//63 63//63 64//63
f 65//64 64//64 57//64
f 66//65 73//65 65//65
f 67//66 74//66 66//66
f 68//67 75//67 67//67
f 69//68 76//68 68//68
f 70//69 77//69 69//69
f 79//70 70//70 71//70
f 80//71 71//71 72//71
f 73//72 72//72 65//72
f 74//73 81//73 73//73
f 75//74 82//74 74//74
f 76//75 83//75 75//75
f 77//76 84//76 76//76
f 86//77 77//77 78//77
f 87//78 78//78 79//78
f 88//79 79//79 80//79
f 81//80 80//80 73//80
f 82//81 89//81 81//81
f 83//82 90//82 82//82
f 84//83 91//83 83//83
f 85//84 92//84 84//84
f 94//85 85//85 86//85
f 95//86 86//86 87//86
f 96//87 87//87 88//87
f 89//88 88//88 81//88
f 90//89 97//89 89//89
f 91//90 98//90 90//90
f 92//91 99//91 91//91
f 93//92 100//92 92//92
f 102//93 93//93 94//93
f 103//94 94//94 95//94
f 104//95 95//95 96//95
f 97//96 96//96 89//96
f 98//97 105//97 97//97
f 99//98 106//98 98//98
f 100//99 107//99 99//99
f 101//100 108//100 100//100
f 110//101 101//101 102//101
f 111//102 102//102 103//102
f 112//103 103//103 104//103
f 105//104 104//104 97//104
f 106//105 113//105 105//105
f 107//106 114//106 106//106
f 108//107 115//107 107//107
f 109//108 116//108 108//108
f 118//109 109//109 110//109
f 119//110 110//110 111//110
f 120//111 111//111 112//111
f 113//112 112//112 105//112
f 114//113 121//113 113//113
f 115//114 122//114 114//114
f 116//115 123//115 115//115
f 117//116 124//116 116//116
f 126//117 117//117 118//117
f 127//118 118//118 119//118
f 128//119 119//119 120//119
f 121//120 120//120 113//120
f 122//121 129//121 121//121
f 123//122 130//122 122//122
f 124//123 131//123 123//123
f 125//124 132//124 124//124
f 134//125 125//125 126//125
f 135//126 126//126 127//126
f 136//127 127//127 128//127
f 129//128 128//128 121//128
f 130//129 137//129 129//129
f 131//130 138//130 130//130
f 132//131 139//131 131//131
f 133//132 140//132 132//132
f 142//133 133//133 134//133
f 143//134 134//134 135//134
f 144//135 135//135 136//135
f 129//136 144//136 136//136
f 138//137 145//137 137//137
f 139//138 146//138 138//138
f 140//139 147//139 139//139
f 141//140 148//140 140//140
f 150//141 141//141 142//141
f 151//142 142//142 143//142
f 152//143 143//143 144//143
f 137//144 152//144 144//144
f 146//145 153//145 145//145
f 147//146 154//146 146//146
f 148//147 155//147 147//147
f 149//148 156//148 148//148
f 158//149 149//149 150//149
f 159//150 150//150 151//150
f 160//151 151//151 152//151
f 145//152 160//152 152//152
f 154//153 161//153 153//153
f 155//154 162//154 154//154
f 156//155 163//155 155//155
f 157//156 164//156 156//156
f 158//157 165//157 157//157
f 167//158 158//158 159//158
f 160//159 167//159 159//159
f 153//160 168//160 160//160
f 162//161 169//161 161//161
f 163//162 170//162 162//162
f 164//163 171//163 163//163
f 165//164 172//164 164//164
f 166//165 173//165 165//165
f 175//166 166//166 167//166
f 168//167 175//167 167//167
f 161//168 176//168 168//168
f 170//169 177//169 169//169
f 171//170 178//170 170//170
f 172//171 179//171 171//171
f 173//172 180//172 172//172
f 174//173 181//173 173//173
f 183//174 174//174 175//174
f 176//175 183//175 175//175
f 169//176 184//176 176//176
f 178//177 185//177 177//177
f 179//178 186//178 178//178
f 180//179 187//179 179//179
f 181//180 188//180 180//180
f 182//181 189//181 181//181
f 191//182 182//182 183//182
f 184//183 191//183 183//183
f 177//184 192//184 184//184
f 186//185 193//185 185//185
f 187//186 194//186 186//186
f 188//187 195//187 187//187
f 189//188 196//188 188//188
f 198//189 189//189 190//189
f 199//190 190//190 191//190
f 200//191 191//191 192//191
f 185//192 200//192 192//192
f 194//193 201//193 193//193
f 195//194 202//194 194//194
f 196//195 203//195 195//195
f 197//196 204//196 196//196
f 206//197 197//197 198//197
f 207//198 198//198 199//198
f 208//199 199//199 200//199
f 193//200 208//200 200//200
f 202//201 209//201 201//201
f 203//202 210//202 202//202
f 204//203 211//203 203//203
f 205//204 212//204 204//204
f 214//205 205//205 206//205
f 215//206 206//206 207//206
f 216//207 207//207 208//207
f 209//208 208//208 201//208
f 210//209 217//209 209//209
f 211//210 218//210 210//210
f 212//211 219//211 211//211
f 213//212 220//212 212//212
f 222//213 213//213 214//213
f 223//214 214//214 215//214
f 224//215 215//215 216//215
f 217//216 216//216 209//216
f 218//217 225//217 217//217
f 219//218 226//218 218//218
f 220//219 227//219 219//219
f 221//220 228//220 220//220
f 230//221 221//221 222//221
f 231//222 222//222 223//222
f 232//223 223//223 224//223
f 225//224 224//224 217//224
f 226//225 233//225 225//225
f 227//226 234//226 226//226
f 228//227 235//227 227//227
f 229//228 236//228 228//228
f 230//229 237//229 229//229
f 239//230 230//230 231//230
f 240//231 231//231 232//231
f 233//232 232//232 225//232
f 234//233 241//233 233//233
f 235//234 242//234 234//234
f 236//235 243//235 235//235
f 237//236 244//236 236//236
f 238//237 245//237 237//237
f 239//238 246//238 238//238
f 248//239 239//239 240//239
f 233//240 248//240 240//240
f 242//241 249//241 241//241
f 243//242 250//242 242//242
f 244//243 251//243 243//243
f 245//244 252//244 244//244
f 246//245 253//245 245//245
f 247//246 254//246 246//246
f 256//247 247//247 248//247
f 241//248 256//248 248//248
f 250//249 257//249 249//249
f 251//250 258//250 250//250
f 252//251 259//251 251//251
f 253//252 260//252 252//252
f 254//253 261//253 253//253
f 255//254 262//254 254//254
f 264//255 255//255 256//255
f 249//256 264//256 256//256
f 258//257 265//257 257//257
f 259//258 266//258 258//258
f 260//259 267//259 259//259
f 261//260 268//260 260//260
f 262//261 269//261 261//261
f 271//262 262//262 263//262
f 272//263 263//263 264//263
f 257//264 272//264 264//264
f 266//265 273//265 265//265
f 267//266 274//266 266//266
f 268//267 275//267 267//267
f 269//268 276//268 268//268
f 270//269 277//269 269//269
f 279//270 270//270 271//270
f 280//271 271//271 272//271
f 273//272 272//272 265//272
f 274//273 281//273 273//273
f 275//274 282//274 274//274
f 276//275 283//275 275//275
f 277//276 284//276 276//276
f 278//277 285//277 277//277
f 287//278 278//278 279//278
f 288//279 279//279 280//279
f 281//280 280//280 273//280
f 282//281 289//281 281//281
f 283//282 290//282 282//282
f 284//283 291//283 283//283
f 285//284 292//284 284//284
f 286//285 293//285 285//285
f 295//286 286//286 287//286
f 296//287 287//287 288//287
f 289//288 288//288 281//288
f 290//289 297//289 289//289
f 291//290 298//290 290//290
f 292//291 299//291 291//291
f 293//292 300//292 292//292
f 302//293 293//293 294//293
f 303//294 294//294 295//294
f 304//295 295//295 296//295
f 297//296 296//296 289//296
f 298//297 305//297 297//297
f 299//298 306//298 298//298
f 300//299 307//299 299//299
f 301//300 308//300 300//300
f 310//301 301//301 302//301
f 311//302 302//302 303//302
f 312//303 303//303 304//303
f 305//304 304//304 297//304
f 306//305 313//305 305//305
f 307//306 314//306 306//306
f 308//307 315//307 307//307
f 309//308 316//308 308//308
f 318//309 309//309 310//309
f 319//310 310//310 311//310
f 320//311 311//311 312//311
f 313//312 312//312 305//312
f 314//313 321//313 313//313
f 315//314 322//314 314//314
f 316//315 323//315 315//315
f 317//316 324//316 316//316
f 326//317 317//317 318//317
f 327//318 318//318 319//318
f 328//319 319//319 320//319
f 321//320 320//320 313//320
f 322//321 329//321 321//321
f 323//322 330//322 322//322
f 324//323 331//323 323//323
f 325//324 332//324 324//324
f 334//325 325//325 326//325
f 335//326 326//326 327//326
f 336//327 327//327 328//327
f 329//328 328//328 321//328
f 330//329 337//329 329//329
f 331//330 338//330 330//330
f 332//331 339//331 331//331
f 333//332 340//332 332//332
f 342//333 333//333 334//333
f 343//334 334//334 335//334
f 344//335 335//335 336//335
f 337//336 336//336 329//336
f 338//337 345//337 337//337
f 339//338 346//338 338//338
f 340//339 347//339 339//339
f 341//340 348//340 340//340
f 350//341 341//341 342//341
f 351//342 342//342 343//342
f 352//343 343//343 344//343
f 345//344 344//344 337//344
f 346//345 353//345 345//345
f 347//346 354//346 346//346
f 348//347 355//347 347//347
f 349//348 356//348 348//348
f 358//349 349//349 350//349
f 359//350 350//350 351//350
f 360//351 351//351 352//351
f 345//352 360//352 352//352
f 354//353 361//353 353//353
f 355//354 362//354 354//354
f 356//355 363//355 355//355
f 357//356 364//356 356//356
f 366//357 357//357 358//357
f 367//358 358//358 359//358
f 368//359 359//359 360//359
f 353//360 368//360 360//360
f 362//361 369//361 361//361
f 363//362 370//362 362//362
f 364//363 371//363 363//363
f 365//364 372//364 364//364
f 374//365 365//365 366//365
f 375//366 366//366 367//366
f 376//367 367//367 368//367
f 361//368 376//368 368//368
f 370//369 377//369 369//369
f 371//370 378//370 370//370
f 372//371 379//371 371//371
f 373//372 380//372 372//372
f 374//373 381//373 373//373
f 383//374 374//374 375//374
f 376//375 383//375 375//375
f 369//376 384//376 376//376
f 378//377 385//377 377//377
f 379//378 386//378 378//378
f 380//379 387//379 379//379
f 381//380 388//380 380//380
f 382//381 389//381 381//381
f 391//382 382//382 383//382
f 384//383 391//383 383//383
f 377//384 392//384 384//384
f 386//385 393//385 385//385
f 387//386 394//386 386//386
f 388//387 395//387 387//387
f 389//388 396//388 388//388
f 390//389 397//389 389//389
f 399//390 390//390 391//390
f 392//391 399//391 391//391
f 385//392 400//392 392//392
f 394//393 401//393 393//393
f 395//394 402//394 394//394
f 396//395 403//395 395//395
f 397//396 404//396 396//396
f 398//397 405//397 397//397
f 407//398 398//398 399//398
f 400//399 407//399 399//399
f 393//400 408//400 400//400
f 402//401 409//401 401//401
f 403//402 410//402 402//402
f 404//403 411//403 403//403
f 405//404 412//404 404//404
f 414//405 405//405 406//405
f 415//406 406//406 407//406
f 416//407 407//407 408//407
f 401//408 416//408 408//408
f 410//409 417//409 409//409
f 411//410 418//410 410//410
f 412//411 419//411 411//411
f 413//412 420//412 412//412
f 422//413 413//413 414//413
f 423//414 414//414 415//414
f 424//415 415//415 416//415
f 409//416 424//416 416//416
f 418//417 425//417 417//417
f 419//418 426//418 418//418
f 420//419 427//419 419//419
f 421//420 428//420 420//420
f 430//421 421//421 422//421
f 431//422 422//422 423//422
f 432//423 423//423 424//423
f 425//424 424//424 417//424
f 426//425 433//425 425//425
f 427//426 434//426 426//426
f 428//427 435//427 427//427
f 429//428 436//428 428//428
f 438//429 429//429 430//429
f 439//430 430//430 431//430
f 440//431 431//431 432//431
f 433//432 432//432 425//432
f 434//433 441//433 433//433
f 435//434 442//434 434//434
f 436//435 443//435 435//435
f 437//436 444//436 436//436
f 438//437 445//437 437//437
f 447//438 438//438 439//438
f 448//439 439//439 440//439
f 441//440 440//440 433//440
f 442//441 449//441 441//441
f 443//442 450//442 442//442
f 444//443 451//443 443//443
f 445//444 452//444 444//444
f 446//445 453//445 445//445
f 455//446 446//446 447//446
f 456//447 447//447 448//447
f 449//448 448//448 441//448
f 450//449 457//449 449//449
f 451//450 458//450 450//450
f 452//451 459//451 451//451
f 453//452 460//452 452//452
f 454//453 461//453 453//453
f 455//454 462//454 454//454
f 464//455 455//455 456//455
f 449//456 464//456 456//456
f 458//457 465//457 457//457
f 459//458 466//458 458//458
f 460//459 467//459 459//459
f 461//460 468//460 460//460
f 462//461 469//461 461//461
f 463//462 470//462 462//462
f 472//463 463//463 464//463
f 457//464 472//464 464//464
f 466//465 473//465 465//465
f 467//466 474//466 466//466
f 468//467 475//467 467//467
f 469//468 476//468 468//468
f 470//469 477//469 469//469
f 471//470 478//470 470//470
f 480//471 471//471 472//471
f 465//472 480//472 472//472
f 474//473 481//473 473//473
f 475//474 482//474 474//474
f 476//475 483//475 475//475
f 477//476 484//476 476//476
f 478//477 485//477 477//477
f 487//478 478//478 479//478
f 488//479 479//479 480//479
f 473//480 488//480 480//480
f 482//481 489//481 481//481
f 483//482 490//482 482//482
f 484//483 491//483 483//483
f 485//484 492//484 484//484
f 486//485 493//485 485//485
f 495//486 486//486 487//486
f 496//487 487//487 488//487
f 489//488 488//488 481//488
f 490//489 497//489 489//489
f 491//490 498//490 490//490
f 492//491 499//491 491//491
f 493//492 500//492 492//492
f 494//493 501//493 493//493
f 503//494 494//494 495//494
f 504//495 495//495 496//495
f 497//496 496//496 489//496
f 498//497 505//497 497//497
f 499//498 506//498 498//498
f 500//499 507//499 499//499
f 501//500 508//500 500//500
f 502//501 509//501 501//501
f 511//502 502//502 503//502
f 512//503 503//503 504//503
f 505//504 504//504 497//504
f 506//505 513//505 505//505
f 507//506 514//506 506//506
f 508//507 515//507 507//507
f 509//508 516//508 508//508
f 518//509 509//509 510//509
f 519//510 510//510 511//510
f 520//511 511//511 512//511
f 513//512 512//512 505//512
f 514//513 521//513 513//513
f 515//514 522//514 514//514
f 516//515 523//515 515//515
f 517//516 524//516 516//516
f 526//517 517//517 518//517
f 527//518 518//518 519//518
f 528//519 519//519 520//519
f 521//520 520//520 513//520
f 522//521 529//521 521//521
f 523//522 530//522 522//522
f 524//523 531//523 523//523
f 525//524 532//524 524//524
f 534//525 525//525 526//525
f 535//526 526//526 527//526
f 536//527 527//527 528//527
f 529//528 528//528 521//528
f 530//529 537//529 529//529
f 531//530 538//530 530//530
f 532//531 539//531 531//531
f 533//532 540//532 532//532
f 542//533 533//533 534//533
f 543//534 534//534 535//534
f 544//535 535//535 536//535
f 537//536 536//536 529//536
f 538//537 545//537 537//537
f 539//538 546//538 538//538
f 540//539 547//539 539//539
f 541//540 548//540 540//540
f 550//541 541//541 542//541
f 551//542 542//542 543//542
f 552//543 543//543 544//543
f 545//544 544//544 537//544
f 546//545 553//545 545//545
f 547//546 554//546 546//546
f 548//547 555//547 547//547
f 549//548 556//548 548//548
f 558//549 549//549 550//549
f 559//550 550//550 551//550
f 560//551 551//551 552//551
f 553//552 552//552 545//552
f 554//553 561//553 553//553
f 555//554 562//554 554//554
f 556//555 563//555 555//555
f 557//556 564//556 556//556
f 566//557 557//557 558//557
f 567//558 558//558 559//558
f 568//559 559//559 560//559
f 561//560 560//560 553//560
f 562//561 569//561 561//561
f 563//562 570//562 562//562
f 564//563 571//563 563//563
f 565//564 572//564 564//564
f 574//565 565//565 566//565
f 575//566 566//566 567//566
f 576//567 567//567 568//567
f 561//568 576//568 568//568
f 570//569 577//569 569//569
f 571//570 578//570 570//570
f 572//571 579//571 571//571
f 573//572 580//572 572//572
f 582//573 573//573 574//573
f 583//574 574//574 575//574
f 584//575 575//575 576//575
f 569//576 584//576 576//576
f 578//577 585//577 577//577
f 579//578 586//578 578//578
f 580//579 587//579 579//579
f 581//580 588//580 580//580
f 590//581 581//581 582//581
f 591//582 582//582 583//582
f 592//583 583//583 584//583
f 577//584 592//584 584//584
f 586//585 593//585 585//585
f 587//586 594//586 586//586
f 588//587 595//587 587//587
f 589//588 596//588 588//588
f 590//589 597//589 589//589
f 599//590 590//590 591//590
f 592//591 599//591 591//591
f 585//592 600//592 592//592
f 594//593 601//593 593//593
f 595//594 602//594 594//594
f 596//595 603//595 595//595
f 597//596 604//596 596//596
f 598//597 605//597 597//597
f 607//598 598//598 599//598
f 600//599 607//599 599//599
f 593//600 608//600 600//600
f 602//601 609//601 601//601
f 603//602 610//602 602//602
f 604//603 611//603 603//603
f 605//604 612//604 604//604
f 606//605 613//605 605//605
f 615//606 606//606 607//606
f 608//607 615//607 607//607
f 601//608 616//608 608//608
f 610//609 617//609 609//609
f 611//610 618//610 610//610
f 612//611 619//611 611//611
f 613//612 620//612 612//612
f 614//613 621//613 613//613
f 623//614 614//614 615//614
f 624//615 615//615 616//615
f 609//616 624//616 616//616
f 618//617 625//617 617//617
f 619//618 626//618 618//618
f 620//619 627//619 619//619
f 621//620 628//620 620//620
f 630//621 621//621 622//621
f 631//622 622//622 623//622
f 632//623 623//623 624//623
f 617//624 632//624 624//624
f 626//625 633//625 625//625
f 627//626 634//626 626//626
f 628//627 635//627 627//627
f 629//628 636//628 628//628
f 638//629 629//629 630//629
f 639//630 630//630 631//630
f 640//631 631//631 632//631
f 633//632 632//632 625//632
f 634//633 1//633 633//633
f 635//634 2//634 634//634
f 636//635 3//635 635//635
f 637//636 4//636 636//636
f 6//637 637//637 638//637
f 7//638 638//638 639//638
f 8//639 639//639 640//639
f 1//640 640//640 633//640
f 2//641 10//641 9//641
f 3//642 11//642 10//642
f 4//643 12//643 11//643
f 5//644 13//644 12//644
f 14//645 13//645 5//645
f 15//646 14//646 6//646
f 16//647 15//647 7//647
f 9//648 16//648 8//648
f 10//649 18//649 17//649
f 11//650 19//650 18//650
f 12//651 20//651 19//651
f 13//652 21//652 20//652
f 14//653 22//653 21//653
f 23//654 22//654 14//654
f 24//655 23//655 15//655
f 17//656 24//656 16//656
f 18//657 26//657 25//657
f 19//658 27//658 26//658
f 20//659 28//659 27//659
f 21//660 29//660 28//660
f 22//661 30//661 29//661
f 31//662 30//662 22//662
f 32//663 31//663 23//663
f 25//664 32//664 24//664
f 26//665 34//665 33//665
f 27//666 35//666 34//666
f 28//667 36//667 35//667
f 29//668 37//668 36//668
f 30//669 38//669 37//669
f 31//670 39//670 38//670
f 40//671 39//671 31//671
f 25//672 33//672 40//672
f 34//673 42//673 41//673
f 35//674 43//674 42//674
f 36//675 44//675 43//675
f 37//676 45//676 44//676
f 38//677 46//677 45//677
f 39//678 47//678 46//678
f 48//679 47//679 39//679
f 33//680 41//680 48//680
f 42//681 50//681 49//681
f 43//682 51//682 50//682
f 44//683 52//683 51//683
f 45//684 53//684 52//684
f 46//685 54//685 53//685
f 47//686 55//686 54//686
f 56//687 55//687 47//687
f 41//688 49//688 56//688
f 50//689 58//689 57//689
f 51//690 59//690 58//690
f 52//691 60//691 59//691
f 53//692 61//692 60//692
f 54//693 62//693 61//693
f 63//694 62//694 54//694
f 64//695 63//695 55//695
f 57//696 64//696 56//696
f 58//697 66//697 65//697
f 59//698 67//698 66//698
f 60//699 68//699 67//699
f 61//700 69//700 68//700
f 62//701 70//701 69//701
f 71//702 70//702 62//702
f 72//703 71//703 63//703
f 65//704 72//704 64//704
f 66//705 74//705 73//705
f 67//706 75//706 74//706
f 68//707 76//707 75//707
f 69//708 77//708 76//708
f 70//709 78//709 77//709
f 79//710 78//710 70//710
f 80//711 79//711 71//711
f 73//712 80//712 72//712
f 74//713 82//713 81//713
f 75//714 83//714 82//714
f 76//715 84//715 83//715
f 77//716 85//716 84//716
f 86//717 85//717 77//717
f 87//718 86//718 78//718
f 88//719 87//719 79//719
f 81//720 88//720 80//720
f 82//721 90//721 89//721
f 83//722 91//722 90//722
f 84//723 92//723 91//723
f 85//724 93//724 92//724
f 94//725 93//725 85//725
f 95//726 94//726 86//726
f 96//727 95//727 87//727
f 89//728 96//728 88//728
f 90//729 98//729 97//729
f 91//730 99//730 98//730
f 92//731 100//731 99//731
f 93//732 101//732 100//732
f 102//733 101//733 93//733
f 103//734 102//734 94//734
f 104//735 103//735 95//735
f 97//736 104//736 96//736
f 98//737 106//737 105//737
f 99//738 107//738 106//738
f 100//739 108//739 107//739
f 101//740 109//740 108//740
f 110//741 109//741 101//741
f 111//742 110//742 102//742
f 112//743 111//743 103//743
f 105//744 112//744 104//744
f 106//745 114//745 113//745
f 107//746 115//746 114//746
f 108//747 116//747 115//747
f 109//748 117//748 116//748
f 118//749 117//749 109//749
f 119//750 118//750 110//750
f 120//751 119//751 111//751
f 113//752 120//752 112//752
f 114//753 122//753 121//753
f 115//754 123//754 122//754
f 116//755 124//755 123//755
f 117//756 125//756 124//756
f 126//757 125//757 117//757
f 127//758 126//758 118//758
f 128//759 127//759 119//759
f 121//760 128//760 120//760
f 122//761 130//761 129//761
f 123//762 131//762 130//762
f 124//763 132//763 131//763
f 125//764 133//764 132//764
f 134//765 133//765 125//765
f 135//766 134//766 126//766
f 136//767 135//767 127//767
f 129//768 136//768 128//768
f 130//769 138//769 137//769
f 131//770 139//770 138//770
f 132//771 140//771 139//771
f 133//772 141//772 140//772
f 142//773 141//773 133//773
f 143//774 142//774 134//774
f 144//775 143//775 135//775
f 129//776 137//776 144//776
f 138//777 146//777 145//777
f 139//778 147//778 146//778
f 140//779 148//779 147//779
f 141//780 149//780 148//780
f 150//781 149//781 141//781
f 151//782 150//782 142//782
f 152//783 151//783 143//783
f 137//784 145//784 152//784
f 146//785 154//785 153//785
f 147//786 155//786 154//786
f 148//787 156//787 155//787
f 149//788 157//788 156//788
f 158//789 157//789 149//789
f 159//790 158//790 150//790
f 160//791 159//791 151//791
f 145//792 153//792 160//792
f 154//793 162//793 161//793
f 155//794 163//794 162//794
f 156//795 164//795 163//795
f 157//796 165//796 164//796
f 158//797 166//797 165//797
f 167//798 166//798 158//798
f 160//799 168//799 167//799
f 153//800 161//800 168//800
f 162//801 170//801 169//801
f 163//802 171//802 170//802
f 164//803 172//803 171//803
f 165//804 173//804 172//804
f 166//805 174//805 173//805
f 175//806 174//806 166//806
f 168//807 176//807 175//807
f 161//808 169//808 176//808
f 170//809 178//809 177//809
f 171//810 179//810 178//810
f 172//811 180//811 179//811
f 173//812 181//812 180//812
f 174//813 182//813 181//813
f 183//814 182//814 174//814
f 176//815 184//815 183//815
f 169//816 177//816 184//816
f 178//817 186//817 185//817
f 179//818 187//818 186//818
f 180//819 188//819 187//819
f 181//820 189//820 188//820
f 182//821 190//821 189//821
f 191//822 190//822 182//822
f 184//823 192//823 191//823
f 177//824 185//824 192//824
f 186//825 194//825 193//825
f 187//826 195//826 194//826
f 188//827 196//827 195//827
f 189//828 197//828 196//828
f 198//829 197//829 189//829
f 199//830 198//830 190//830
f 200//831 199//831 191//831
f 185//832 193//832 200//832
f 194//833 202//833 201//833
f 195//834 203//834 202//834
f 196//835 204//835 203//835
f 197//836 205//836 204//836
f 206//837 205//837 197//837
f 207//838 206//838 198//838
f 208//839 207//839 199//839
f 193//840 201//840 208//840
f 202//841 210//841 209//841
f 203//842 211//842 210//842
f 204//843 212//843 211//843
f 205//844 213//844 212//844
f 214//845 213//845 205//845
f 215//846 214//846 206//846
f 216//847 215//847 207//847
f 209//848 216//848 208//848
f 210//849 218//849 217//849
f 211//850 219//850 218//850
f 212//851 220//851 219//851
f 213//852 221//852 220//852
f 222//853 221//853 213//853
f 223//854 222//854 214//854
f 224//855 223//855 215//855
f 217//856 224//856 216//856
f 218//857 226//857 225//857
f 219//858 227//858 226//858
f 220//859 228//859 227//859
f 221//860 229//860 228//860
f 230//861 229//861 221//861
f 231//862 230//862 222//862
f 232//863 231//863 223//863
f 225//864 232//864 224//864
f 226//865 234//865 233//865
f 227//866 235//866 234//866
f 228//867 236//867 235//867
f 229//868 237//868 236//868
f 230//869 238//869 237//869
f 239//870 238//870 230//870
f 240//871 239//871 231//871
f 233//872 240//872 232//872
f 234//873 242//873 241//873
f 235//874 243//874 242//874
f 236//875 244//875 243//875
f 237//876 245//876 244//876
f 238//877 246//877 245//877
f 239//878 247//878 246//878
f 248//879 247//879 239//879
f 233//880 241//880 248//880
f 242//881 250//881 249//881
f 243//882 251//882 250//882
f 244//883 252//883 251//883
f 245//884 253//884 252//884
f 246//885 254//885 253//885
f 247//886 255//886 254//886
f 256//887 255//887 247//887
f 241//888 249//888 256//888
f 250//889 258//889 257//889
f 251//890 259//890 258//890
f 252//891 260//891 259//891
f 253//892 261//892 260//892
f 254//893 262//893 261//893
f 255//894 263//894 262//894
f 264//895 263//895 255//895
f 249//896 257//896 264//896
f 258//897 266//897 265//897
f 259//898 267//898 266//898
f 260//899 268//899 267//899
f 261//900 269//900 268//900
f 262//901 270//901 269//901
f 271//902 270//902 262//902
f 272//903 271//903 263//903
f 257//904 265//904 272//904
f 266//905 274//905 273//905
f 267//906 275//906 274//906
f 268//907 276//907 275//907
f 269//908 277//908 276//908
f 270//909 278//909 277//909
f 279//910 278//910 270//910
f 280//911 279//911 271//911
f 273//912 280//912 272//912
f 274//913 282//913 281//913
f 275//914 283//914 282//914
f 276//915 284//915 283//915
f 277//916 285//916 284//916
f 278//917 286//917 285//917
f 287//918 286//918 278//918
f 288//919 287//919 279//919
f 281//920 288//920 280//920
f 282//921 290//921 289//921
f 283//922 291//922 290//922
f 284//923 292//923 291//923
f 285//924 293//924 292//924
f 286//925 294//925 293//925
f 295//926 294//926 286//926
f 296//927 295//927 287//927
f 289//928 296//928 288//928
f 290//929 298//929 297//929
f 291//930 299//930 298//930
f 292//931 300//931 299//931
f 293//932 301//932 300//932
f 302//933 301//933 293//933
f 303//934 302//934 294//934
f 304//935 303//935 295//935
f 297//936 304//936 296//936
f 298//937 306//937 305//937
f 299//938 307//938 306//938
f 300//939 308//939 307//939
f 301//940 309//940 308//940
f 310//941 309//941 301//941
f 311//942 310//942 302//942
f 312//943 311//943 303//943
f 305//944 312//944 304//944
f 306//945 314//945 313//945
f 307//946 315//946 314//946
f 308//947 316//947 315//947
f 309//948 317//948 316//948
f 318//949 317//949 309//949
f 319//950 318//950 310//950
f 320//951 319//951 311//951
f 313//952 320//952 312//952
f 314//953 322//953 321//953
f 315//954 323//954 322//954
f 316//955 324//955 323//955
f 317//956 325//956 324//956
f 326//957 325//957 317//957
f 327//958 326//958 318//958
f 328//959 327//959 319//959
f 321//960 328//960 320//960
f 322//961 330//961 329//961
f 323//962 331//962 330//962
f 324//963 332//963 331//963
f 325//964 333//964 332//964
f 334//965 333//965 325//965
f 335//966 334//966 326//966
f 336//967 335//967 327//967
f 329//968 336//968 328//968
f 330//969 338//969 337//969
f 331//970 339//970 338//970
f 332//971 340//971 339//971
f 333//972 341//972 340//972
f 342//973 341//973 333//973
f 343//974 342//974 334//974
f 344//975 343//975 335//975
f 337//976 344//976 336//976
f 338//977 346//977 345//977
f 339//978 347//978 346//978
f 340//979 348//979 347//979
f 341//980 349//980 348//980
f 350//981 349//981 341//981
f 351//982 350//982 342//982
f 352//983 351//983 343//983
f 345//984 352//984 344//984
f 346//985 354//985 353//985
f 347//986 355//986 354//986
f 348//987 356//987 355//987
f 349//988 357//988 356//988
f 358//989 357//989 349//989
f 359//990 358//990 350//990
f 360//991 359//991 351//991
f 345//992 353//992 360//992
f 354//993 362//993 361//993
f 355//994 363//994 362//994
f 356//995 364//995 363//995
f 357//996 365//996 364//996
f 366//997 365//997 357//997
f 367//998 366//998 358//998
f 368//999 367//999 359//999
f 353//1000 361//1000 368//1000
f 362//1001 370//1001 369//1001
f 363//1002 371//1002 370//1002
f 364//1003 372//1003 371//1003
f 365//1004 373//1004 372//1004
f 374//1005 373//1005 365//1005
f 375//1006 374//1006 366//1006
f 376//1007 375//1007 367//1007
f 361//1008 369//1008 376//1008
f 370//1009 378//1009 377//1009
f 371//1010 379//1010 378//1010
f 372//1011 380//1011 379//1011
f 373//1012 381//1012 380//1012
f 374//1013 382//1013 381//1013
f 383//1014 382//1014 374//1014
f 376//1015 384//1015 383//1015
f 369//1016 377//1016 384//1016
f 378//1017 386//1017 385//1017
f 379//1018 387//1018 386//1018
f 380//1019 388//1019 387//1019
f 381//1020 389//1020 388//1020
f 382//1021 390//1021 389//1021
f 391//1022 390//1022 382//1022
f 384//1023 392//1023 391//1023
f 377//1024 385//1024 392//1024
f 386//1025 394//1025 393//1025
f 387//1026 395//1026 394//1026
f 388//1027 396//1027 395//1027
f 389//1028 397//1028 396//1028
f 390//1029 398//1029 397//1029
f 399//1030 398//1030 390//1030
f 392//1031 400//1031 399//1031
f 385//1032 393//1032 400//1032
f 394//1033 402//1033 401//1033
f 395//1034 403//1034 402//1034
f 396//1035 404//1035 403//1035
f 397//1036 405//1036 404//1036
f 398//1037 406//1037 405//1037
f 407//1038 406//1038 398//1038
f 400//1039 408//1039 407//1039
f 393//1040 401//1040 408//1040
f 402//1041 410//1041 409//1041
f 403//1042 411//1042 410//1042
f 404//1043 412//1043 411//1043
f 405//1044 413//1044 412//1044
f 414//1045 413//1045 405//1045
f 415//1046 414//1046 406//1046
f 416//1047 415//1047 407//1047
f 401//1048 409//1048 416//1048
f 410//1049 418//1049 417//1049
f 411//1050 419//1050 418//1050
f 412//1051 420//1051 419//1051
f 413//1052 421//1052 420//1052
f 422//1053 421//1053 413//1053
f 423//1054 422//1054 414//1054
f 424//1055 423//1055 415//1055
f 409//1056 417//1056 424//1056
f 418//1057 426//1057 425//1057
f 419//1058 427//1058 426//1058
f 420//1059 428//1059 427//1059
f 421//1060 429//1060 428//1060
f 430//1061 429//1061 421//1061
f 431//1062 430//1062 422//1062
f 432//1063 431//1063 423//1063
f 425//1064 432//1064 424//1064
f 426//1065 434//1065 433//1065
f 427//1066 435//1066 434//1066
f 428//1067 436//1067 435//1067
f 429//1068 437//1068 436//1068
f 438//1069 437//1069 429//1069
f 439//1070 438//1070 430//1070
f 440//1071 439//1071 431//1071
f 433//1072 440//1072 432//1072
f 434//1073 442//1073 441//1073
f 435//1074 443//1074 442//1074
f 436//1075 444//1075 443//1075
f 437//1076 445//1076 444//1076
f 438//1077 446//1077 445//1077
f 447//1078 446//1078 438//1078
f 448//1079 447//1079 439//1079
f 441//1080 448//1080 440//1080
f 442//1081 450//1081 449//1081
f 443//1082 451//1082 450//1082
f 444//1083 452//1083 451//1083
f 445//1084 453//1084 452//1084
f 446//1085 454//1085 453//1085
f 455//1086 454//1086 446//1086
f 456//1087 455//1087 447//1087
f 449//1088 456//1088 448//1088
f 450//1089 458//1089 457//1089
f 451//1090 459//1090 458//1090
f 452//1091 460//1091 459//1091
f 453//1092 461//1092 460//1092
f 454//1093 462//1093 461//1093
f 455//1094 463//1094 462//1094
f 464//1095 463//1095 455//1095
f 449//1096 457//1096 464//1096
f 458//1097 466//1097 465//1097
f 459//1098 467//1098 466//1098
f 460//1099 468//1099 467//1099
f 461//1100 469//1100 468//1100
f 462//1101 470//1101 469//1101
f 463//1102 471//1102 470//1102
f 472//1103 471//1103 463//1103
f 457//1104 465//1104 472//1104
f 466//1105 474//1105 473//1105
f 467//1106 475//1106 474//1106
f 468//1107 476//1107 475//1107
f 469//1108 477//1108 476//1108
f 470//1109 478//1109 477//1109
f 471//1110 479//1110 478//1110
f 480//1111 479//1111 471//1111
f 465//1112 473//1112 480//1112
f 474//1113 482//1113 481//1113
f 475//1114 483//1114 482//1114
f 476//1115 484//1115 483//1115
f 477//1116 485//1116 484//1116
f 478//1117 486//1117 485//1117
f 487//1118 486//1118 478//1118
f 488//1119 487//1119 479//1119
f 473//1120 481//1120 488//1120
f 482//1121 490//1121 489//1121
f 483//1122 491//1122 490//1122
f 484//1123 492//1123 491//1123
f 485//1124 493//1124 492//1124
f 486//1125 494//1125 493//1125
f 495//1126 494//1126 486//1126
f 496//1127 495//1127 487//1127
f 489//1128 496//1128 488//1128
f 490//1129 498//1129 497//1129
f 491//1130 499//1130 498//1130
f 492//1131 500//1131 499//1131
f 493//1132 501//1132 500//1132
f 494//1133 502//1133 501//1133
f 503//1134 502//1134 494//1134
f 504//1135 503//1135 495//1135
f 497//1136 504//1136 496//1136
f 498//1137 506//1137 505//1137
f 499//1138 507//1138 506//1138
f 500//1139 508//1139 507//1139
f 501//1140 509//1140 508//1140
f 502//1141 510//1141 509//1141
f 511//1142 510//1142 502//1142
f 512//1143 511//1143 503//1143
f 505//1144 512//1144 504//1144
f 506//1145 514//1145 513//1145
f 507//1146 515//1146 514//1146
f 508//1147 516//1147 515//1147
f 509//1148 517//1148 516//1148
f 518//1149 517//1149 509//1149
f 519//1150 518//1150 510//1150
f 520//1151 519//1151 511//1151
f 513//1152 520//1152 512//1152
f 514//1153 522//1153 521//1153
f 515//1154 523//1154 522//1154
f 516//1155 524//1155 523//1155
f 517//1156 525//1156 524//1156
f 526//1157 525//1157 517//1157
f 527//1158 526//1158 518//1158
f 528//1159 527//1159 519//1159
f 521//1160 528//1160 520//1160
f 522//1161 530//1161 529//1161
f 523//1162 531//1162 530//1162
f 524//1163 532//1163 531//1163
f 525//1164 533//1164 532//1164
f 534//1165 533//1165 525//1165
f 535//1166 534//1166 526//1166
f 536//1167 535//1167 527//1167
f 529//1168 536//1168 528//1168
f 530//1169 538//1169 537//1169
f 531//1170 539//1170 538//1170
f 532//1171 540//1171 539//1171
f 533//1172 541//1172 540//1172
f 542//1173 541//1173 533//1173
f 543//1174 542//1174 534//1174
f 544//1175 543//1175 535//1175
f 537//1176 544//1176 536//1176
f 538//1177 546//1177 545//1177
f 539//1178 547//1178 546//1178
f 540//1179 548//1179 547//1179
f 541//1180 549//1180 548//1180
f 550//1181 549//1181 541//1181
f 551//1182 550//1182 542//1182
f 552//1183 551//1183 543//1183
f 545//1184 552//1184 544//1184
f 546//1185 554//1185 553//1185
f 547//1186 555//1186 554//1186
f 548//1187 556//1187 555//1187
f 549//1188 557//1188 556//1188
f 558//1189 557//1189 549//1189
f 559//1190 558//1190 550//1190
f 560//1191 559//1191 551//1191
f 553//1192 560//1192 552//1192
f 554//1193 562//1193 561//1193
f 555//1194 563//1194 562//1194
f 556//1195 564//1195 563//1195
f 557//1196 565//1196 564//1196
f 566//1197 565//1197 557//1197
f 567//1198 566//1198 558//1198
f 568//1199 567//1199 559//1199
f 561//1200 568//1200 560//1200
f 562//1201 570//1201 569//1201
f 563//1202 571//1202 570//1202
f 564//1203 572//1203 571//1203
f 565//1204 573//1204 572//1204
f 574//1205 573//1205 565//1205
f 575//1206 574//1206 566//1206
f 576//1207 575//1207 567//1207
f 561//1208 569//1208 576//1208
f 570//1209 578//1209 577//1209
f 571//1210 579//1210 578//1210
f 572//1211 580//1211 579//1211
f 573//1212 581//1212 580//1212
f 582//1213 581//1213 573//1213
f 583//1214 582//1214 574//1214
f 584//1215 583//1215 575//1215
f 569//1216 577//1216 584//1216
f 578//1217 586//1217 585//1217
f 579//1218 587//1218 586//1218
f 580//1219 588//1219 587//1219
f 581//1220 589//1220 588//1220
f 590//1221 589//1221 581//1221
f 591//1222 590//1222 582//1222
f 592//1223 591//1223 583//1223
f 577//1224 585//1224 592//1224
f 586//1225 594//1225 593//1225
f 587//1226 595//1226 594//1226
f 588//1227 596//1227 595//1227
f 589//1228 597//1228 596//1228
f 590//1229 598//1229 597//1229
f 599//1230 598//1230 590//1230
f 592//1231 600//1231 599//1231
f 585//1232 593//1232 600//1232
f 594//1233 602//1233 601//1233
f 595//1234 603//1234 602//1234
f 596//1235 604//1235 603//1235
f 597//1236 605//1236 604//1236
f 598//1237 606//1237 605//1237
f 607//1238 606//1238 598//1238
f 600//1239 608//1239 607//1239
f 593//1240 601//1240 608//1240
f 602//1241 610//1241 609//1241
f 603//1242 611//1242 610//1242
f 604//1243 612//1243 611//1243
f 605//1244 613//1244 612//1244
f 606//1245 614//1245 613//1245
f 615//1246 614//1246 606//1246
f 608//1247 616//1247 615//1247
f 601//1248 609//1248 616//1248
f 610//1249 618//1249 617//1249
f 611//1250 619//1250 618//1250
f 612//1251 620//1251 619//1251
f 613//1252 621//1252 620//1252
f 614//1253 622//1253 621//1253
f 623//1254 622//1254 614//1254
f 624//1255 623//1255 615//1255
f 609//1256 617//1256 624//1256
f 618//1257 626//1257 625//1257
f 619//1258 627//1258 626//1258
f 620//1259 628//1259 627//1259
f 621//1260 629//1260 628//1260
f 630//1261 629//1261 621//1261
f 631//1262 630//1262 622//1262
f 632//1263 631//1263 623//1263
f 617//1264 625//1264 632//1264
f 626//1265 634//1265 633//1265
f 627//1266 635//1266 634//1266
f 628//1267 636//1267 635//1267
f 629//1268 637//1268 636//1268
f 638//1269 637//1269 629//1269
f 639//1270 638//1270 630//1270
f 640//1271 639//1271 631//1271
f 633//1272 640//1272 632//1272
f 634//1273 2//1273 1//1273
f 635//1274 3//1274 2//1274
f 636//1275 4//1275 3//1275
f 637//1276 5//1276 4//1276
f 6//1277 5//1277 637//1277
f 7//1278 6//1278 638//1278
f 8//1279 7//1279 639//1279
f 1//1280 8//1280 640//1280
